<svg xmlns="http://www.w3.org/2000/svg" viewBox="0 0 489.93 315.53"><defs><style>.cls-1{isolation:isolate;}.cls-2{fill:#ef7e67;}.cls-3{fill:#f1876f;}.cls-4{fill:#f18a74;}.cls-5{fill:#f39976;}.cls-6{fill:#f3966a;}.cls-7{fill:#f2916b;}.cls-8{fill:#f39771;}.cls-9{fill:#f5a672;}.cls-10{fill:#f7ad78;}.cls-11{fill:#f6a878;}.cls-12{fill:#f6ac7b;}.cls-13{fill:#f8b57b;}.cls-14{fill:#f6a96e;}.cls-15{fill:#f8b575;}.cls-16{fill:#fbc27c;}.cls-17{fill:#fcc981;}.cls-18{fill:#fbc27b;}.cls-19{fill:#fbc57d;}.cls-20{fill:#fcd385;}.cls-21{fill:#fbd485;}.cls-22{fill:#fdcf86;}.cls-23{fill:#fed98c;}.cls-24{fill:#fed889;}.cls-25{fill:#ffe592;}.cls-26{fill:#fde18e;}.cls-27{fill:#fceb96;}.cls-28{fill:#fede91;}.cls-29{fill:#fee392;}.cls-30{fill:#ffec98;}.cls-31{fill:#fff09c;}.cls-32{fill:#fcf19d;}.cls-33{fill:#fedc93;}.cls-34{fill:#fee295;}.cls-35{fill:#ffea9b;}.cls-36{fill:#ffee9f;}.cls-37{fill:#f8dd95;}.cls-38{fill:#f0e297;}.cls-39{fill:#f4ea9b;}.cls-40{fill:#f8ee9e;}.cls-41{fill:#dcdf93;}.cls-42{fill:#e1e296;}.cls-43{fill:#e4e89b;}.cls-44{fill:#dde69f;}.cls-45{fill:#c4cd9b;}.cls-46{fill:#b8caa3;}.cls-47{fill:#bdd3a6;}.cls-48{fill:#c8dea5;}.cls-49{mix-blend-mode:multiply;}.cls-50{fill:#b8d7ac;}.cls-51{fill:#97abae;}.cls-52{fill:#a6bcab;}.cls-53{fill:#abc3ad;}.cls-54{fill:#9ebfb6;}.cls-55{fill:#a0c6b5;}.cls-56{fill:#808fba;}.cls-57{fill:#819fba;}.cls-58{fill:#7f9fc2;}.cls-59{fill:#85adbf;}.cls-60{fill:#f8b274;}.cls-61{fill:#fbc680;}.cls-62{fill:#fdd188;}.cls-63{fill:#fdd289;}.cls-64{fill:#fed48c;}.cls-65{fill:#fed48e;}.cls-66{fill:#f0d58f;}.cls-67{fill:#f7d891;}.cls-68{fill:#ddd28b;}.cls-69{fill:#e5d78f;}.cls-70{fill:#e2e8a1;}.cls-71{fill:#d9e49f;}.cls-72{fill:#b4b79d;}.cls-73{fill:#c4c699;}.cls-74{fill:#c0dcaa;}.cls-75{fill:#b3d7ae;}.cls-76{fill:#9a9ba2;}.cls-77{fill:#a1a7a3;}.cls-78{fill:#96a4aa;}.cls-79{fill:#90bbbd;}.cls-80{fill:#868ea9;}.cls-81{fill:#8293b0;}.cls-82{fill:#7facc3;}.cls-83{fill:#7da4c6;}.cls-84{fill:#7f82bc;}.cls-85{fill:#8084bf;}.cls-86{fill:#7f92c4;}.cls-87{fill:#7d97c7;}.cls-88{fill:#f4a17c;}.cls-89{fill:#f2977b;}.cls-90{fill:#eb9f7b;}.cls-91{fill:#e5917a;}.cls-92{fill:#f4ba7f;}.cls-93{fill:#f4b37e;}.cls-94{fill:#ebaf7e;}.cls-95{fill:#e8b87e;}.cls-96{fill:#f4c881;}.cls-97{fill:#f4d786;}.cls-98{fill:#ebcd81;}.cls-99{fill:#e8d68a;}.cls-100{fill:#f4e793;}.cls-101{fill:#f2ee99;}.cls-102{fill:#eaeb98;}.cls-103{fill:#e6e393;}.cls-104{fill:#f0eea2;}.cls-105{fill:#eeeda1;}.cls-106{fill:#e8eaa1;}.cls-107{fill:#e4e9a2;}.cls-108{fill:#f3f0a6;}.cls-109{fill:#f1efa7;}.cls-110{fill:#eeeda7;}.cls-111{fill:#e9eba7;}.cls-112{fill:#e5eaa6;}.cls-113{fill:#e4e9a4;}.cls-114{fill:#e7eaa5;}.cls-115{fill:#e0e7a4;}.cls-116{fill:#dfe7a5;}.cls-117{fill:#d9e5a4;}.cls-118{fill:#dae5a1;}.cls-119{fill:#d0e1a2;}.cls-120{fill:#d4e2a1;}.cls-121{fill:#ccdfa1;}.cls-122{fill:#cbdfa0;}.cls-123{fill:#d0e1a3;}.cls-124{fill:#c9dea2;}.cls-125{fill:#bdd99f;}.cls-126{fill:#badaad;}.cls-127{fill:#c0dca8;}.cls-128{fill:#b4d8ad;}.cls-129{fill:#b7d9ac;}.cls-130{fill:#b8d8a8;}.cls-131{fill:#a8d3ad;}.cls-132{fill:#9fd0af;}.cls-133{fill:#a7d2a9;}.cls-134{fill:#90cbb0;}.cls-135{fill:#98c7b9;}.cls-136{fill:#90c4bd;}.cls-137{fill:#a3d2b6;}.cls-138{fill:#a3d2b5;}.cls-139{fill:#8fcbbc;}.cls-140{fill:#90cdba;}.cls-141{fill:#82c5be;}.cls-142{fill:#85c8ba;}.cls-143{fill:#76bfbe;}.cls-144{fill:#76c2bb;}.cls-145{fill:#79a6c9;}.cls-146{fill:#78b3c6;}.cls-147{fill:#75afcb;}.cls-148{fill:#79b9c7;}.cls-149{fill:#6caccc;}.cls-150{fill:#6eb6c5;}.cls-151{fill:#67b1c6;}.cls-152{fill:#5ea7cc;}.cls-153{fill:#7899cb;}.cls-154{fill:#769dcc;}.cls-155{fill:#7393cc;}.cls-156{fill:#6d93cb;}.cls-157{fill:#6a9dcc;}.cls-158{fill:#6294cb;}.cls-159{fill:#5f99cb;}.cls-160{fill:#f07f5f;}.cls-161{fill:#ef775f;}.cls-162{fill:#ef7e61;}.cls-163{fill:#f28c66;}.cls-164{fill:#ed7c62;}.cls-165{fill:#ef7d5e;}.cls-166{fill:#f08b65;}.cls-167{fill:#f28f66;}.cls-168{fill:#f39866;}.cls-169{fill:#f29164;}.cls-170{fill:#f39664;}.cls-171{fill:#dbd088;}.cls-172{fill:#d5cd86;}.cls-173{fill:#c8c487;}.cls-174{fill:#bfb988;}.cls-175{fill:#bbbc8e;}.cls-176{fill:#ec896b;}.cls-177{fill:#ed9a75;}.cls-178{fill:#f19a72;}.cls-179{fill:#f2a476;}.cls-180{fill:#f49e6f;}.cls-181{fill:#f6a874;}.cls-182{fill:#f6a671;}.cls-183{fill:#f8b277;}.cls-184{fill:#f8b476;}.cls-185{fill:#fbc37e;}.cls-186{fill:#fae994;}.cls-187{fill:#f9e08d;}.cls-188{fill:#f7de8c;}.cls-189{fill:#f6e993;}.cls-190{fill:#dfe696;}.cls-191{fill:#d6e299;}.cls-192{fill:#d4df94;}.cls-193{fill:#cfda93;}.cls-194{fill:#cade9b;}.cls-195{fill:#c0d69b;}.cls-196{fill:#bbc997;}.cls-197{fill:#b0cba3;}.cls-198{fill:#aabd9d;}.cls-199{fill:#eb9f7e;}.cls-200{fill:#eda37c;}.cls-201{fill:#efa97e;}.cls-202{fill:#f2ae7f;}.cls-203{fill:#f5b580;}.cls-204{fill:#f6b97e;}.cls-205{fill:#f9bd82;}.cls-206{fill:#fac180;}.cls-207{fill:#fbc583;}.cls-208{fill:#fccc86;}.cls-209{fill:#fcf29e;}.cls-210{fill:#f8f1a0;}.cls-211{fill:#f7f19f;}.cls-212{fill:#f4f0a2;}.cls-213{fill:#f3efa1;}.cls-214{fill:#dfe7a0;}.cls-215{fill:#dde6a2;}.cls-216{fill:#d9e4a0;}.cls-217{fill:#d7e3a2;}.cls-218{fill:#cfe0a1;}.cls-219{fill:#cadea0;}.cls-220{fill:#c0dba7;}.cls-221{fill:#bad9a6;}.cls-222{fill:#b1d6aa;}.cls-223{fill:#acd1af;}.cls-224{fill:#eb9f83;}.cls-225{fill:#eca381;}.cls-226{fill:#efa981;}.cls-227{fill:#f1ad83;}.cls-228{fill:#f5b384;}.cls-229{fill:#f6b782;}.cls-230{fill:#f9bc84;}.cls-231{fill:#fabf85;}.cls-232{fill:#fbc586;}.cls-233{fill:#fccb8a;}.cls-234{fill:#fdd28e;}.cls-235{fill:#e1e8a5;}.cls-236{fill:#dae5a5;}.cls-237{fill:#d5e3a5;}.cls-238{fill:#cfe0a3;}.cls-239{fill:#cadfa6;}.cls-240{fill:#c1dca9;}.cls-241{fill:#bcdaa9;}.cls-242{fill:#e5b684;}.cls-243{fill:#f3bd85;}.cls-244{fill:#eec286;}.cls-245{fill:#f4c888;}.cls-246{fill:#f8cd8b;}</style></defs><title>banner</title><g class="cls-1"><g id="Capa_2" data-name="Capa 2"><g id="Capa_1-2" data-name="Capa 1"><g id="hands"><path class="cls-2" d="M19.21,153.85l3.26-1.49A3.44,3.44,0,0,0,19.21,153.85Z"/><path class="cls-3" d="M39.51,144.42A3.91,3.91,0,0,0,35.57,148a39,39,0,0,0,.66,8l3.64,1.27Z"/><path class="cls-4" d="M45.3,152.88A26.53,26.53,0,0,0,43.79,147a4.48,4.48,0,0,0-4.28-2.61l.37,12.85Z"/><path class="cls-5" d="M63.92,155.3c-.18-6.61-7.24-7.24-8.49-2a30.47,30.47,0,0,0-1.08,6.65l9.09,1.67Z"/><path class="cls-5" d="M45.89,158.37h0c-.16-1.94-.32-3.75-.59-5.49l-5.42,4.39Z"/><path class="cls-6" d="M5.75,177c-2.21-2.13-4.36-1.47-5.28.19L5.79,177Z"/><path class="cls-7" d="M22.47,152.36l-3.26,1.49a6.07,6.07,0,0,0-.87,4.08c.12,2.7,1.2,5.79,1.95,8.39.18,1.49.4,3,.63,4.48l2.84-18A3.9,3.9,0,0,0,22.47,152.36Z"/><path class="cls-8" d="M36.24,156c.12.81.23,1.57.28,2.26s0,1.52,0,2.28l3.35-3.26Z"/><path class="cls-8" d="M28.6,165.72c-.65-3.31-1.57-6.59-2.29-9.77a5.16,5.16,0,0,0-2.55-3.2l-2.84,18q.33,2.11.71,4.22l7.27-7.07A17.32,17.32,0,0,1,28.6,165.72Z"/><path class="cls-9" d="M36.53,160.53q0,5.51.56,11l2.79-14.28Z"/><path class="cls-9" d="M32.28,180c-.82-4-2.65-8.16-3.38-12L21.63,175q.28,1.58.59,3.15l11.23,8A32.51,32.51,0,0,0,32.28,180Z"/><path class="cls-10" d="M47,167.16c-.32-2.21-.57-3.65-.78-5.25l-6.36-4.63-2.79,14.28c0,.47.08.94.13,1.41-.3,4.57.29,9.63.26,12.15l9.94-4.52A124.05,124.05,0,0,0,47,167.16Z"/><path class="cls-10" d="M53.52,167.2c-.21,2.09-.41,4.2-.68,6.23-.38,1.79-.78,3.53-1.2,5.23l10.85-4.93Z"/><path class="cls-11" d="M62.73,172.75c.15-2.42.14-5.09.46-8l.24-3.15-9.09-1.67c-.07.78-.14,1.55-.22,2.3-.25,1.59-.43,3.28-.61,5l9,6.53Z"/><path class="cls-11" d="M46.24,161.9c-.13-1-.25-2.12-.35-3.53l-6-1.1Z"/><path class="cls-12" d="M62.67,173.56c0-.27,0-.54.06-.81l-.25,1Z"/><path class="cls-13" d="M62.66,173.79c0-.08,0-.15,0-.23l-.19.17Z"/><path class="cls-14" d="M16.69,191.49c-4-4.48-9.07-12.35-10.9-14.49l-5.32.15a4.17,4.17,0,0,0-.13,3.6c1.12,5.07,5.73,10.34,8.69,15.61.71,2,5,5.93,6.37,8.31l2-12.35Z"/><path class="cls-15" d="M21.11,197.1a44.79,44.79,0,0,0-3.68-4.8l-2,12.35a4.73,4.73,0,0,1,.27.52l7.73-7.76A2.11,2.11,0,0,1,21.11,197.1Z"/><path class="cls-15" d="M33.45,186.14l-11.23-8c.15.8.31,1.59.47,2.39.2,3.17,2,8.09,3.07,12.14a3.59,3.59,0,0,1-.36,2.72l8.17-8.21C33.53,186.85,33.49,186.49,33.45,186.14Z"/><path class="cls-16" d="M34,189.39a3.06,3.06,0,0,1-.42-1.57l-.06-.62-8.17,8.21a4.33,4.33,0,0,1-2,2l-7.73,7.76,0,.1a1,1,0,0,1,.2.34l17.57.42Z"/><path class="cls-17" d="M61.29,199.7c0-.16-.08-.31-.12-.46s-.12-.94-.21-1.9l-24.34-9.72c-.75,1.19-1.94,2.6-2.58,1.77L33.48,206Z"/><path class="cls-18" d="M60.75,188.57a95.75,95.75,0,0,0,1.5-12,18.48,18.48,0,0,0,.32-2l-.08-.87-10.85,4.93q-.49,2-1,4c-.62,2.18-1.87,5.08-3.4,4.49q.15-3.3.21-6.56l-9.94,4.52c0,.89-.1,1.47-.33,1.59a9.79,9.79,0,0,1-.52.93L61,197.34A55.57,55.57,0,0,1,60.75,188.57Z"/><path class="cls-19" d="M62.57,174.6c0-.27.06-.53.09-.81l-.17-.06Z"/><path class="cls-20" d="M82.51,197.72A14.68,14.68,0,0,1,85,195.55l.75-6.16a4.06,4.06,0,0,0-1.2-.08c-7.61.78-12.9,4.81-15.85,11l10.49,3.8A65.26,65.26,0,0,1,82.51,197.72Z"/><path class="cls-21" d="M87.19,193.89a2.7,2.7,0,0,0-1.43-4.49L85,195.55C85.79,195,86.57,194.42,87.19,193.89Z"/><path class="cls-22" d="M15.92,205.61c.61,1.39,1.8,6.64,2.65,9.48.21,2,.4,4,.63,5.93l14.29-15Z"/><path class="cls-23" d="M33.48,206,19.2,221c.21,1.82.45,3.65.77,5.5l25.7-7.34Z"/><path class="cls-24" d="M45.66,219.17l16.17-17.1c-.18-.81-.35-1.63-.54-2.38L33.48,206Z"/><path class="cls-25" d="M68.22,225l-2.46-19A4.44,4.44,0,0,1,64.34,207c-1.42-.73-2-2.82-2.51-5l-16.17,17.1Z"/><path class="cls-26" d="M73.83,218a144.42,144.42,0,0,1,5.38-13.94l-10.49-3.8c-.24.51-.48,1-.69,1.58a15.89,15.89,0,0,1-2.28,4.08l2.46,19Z"/><path class="cls-27" d="M71.06,224.58a21.51,21.51,0,0,0,2-4.28c.22-.69.47-1.45.74-2.26L68.22,225Z"/><path class="cls-28" d="M20.87,230.88a47.35,47.35,0,0,0,3.76,10.06l.74,1.83L44,235.92Z"/><path class="cls-29" d="M45.66,219.17,20,226.52c.25,1.44.54,2.89.91,4.36l23.08,5Z"/><polygon class="cls-30" points="45.66 219.17 43.96 235.92 68.22 224.96 45.66 219.17"/><path class="cls-31" d="M44,235.92l15.34,8.79a21.92,21.92,0,0,1,2.83-7.37c.86-1.79,3.06-4.47,5.31-7.47l.78-4.91Z"/><path class="cls-32" d="M67.44,229.87a61,61,0,0,0,3.63-5.29l-2.84.38Z"/><polygon class="cls-33" points="28.27 255.01 28.27 261.12 37.35 262.15 28.27 255.01"/><polygon class="cls-34" points="43.96 235.92 25.37 242.76 28.27 249.93 28.27 255.01 37.35 262.15 43.96 235.92"/><path class="cls-35" d="M37.35,262.15l21.49-11.37c0-1.33,0-2,0-2a22.36,22.36,0,0,1,.46-4L44,235.92Z"/><path class="cls-36" d="M58.82,266.95c0-7.57,0-13.29,0-16.16L37.35,262.15Z"/><polygon class="cls-37" points="28.27 261.12 28.27 278.94 37.35 262.15 28.27 261.12"/><polygon class="cls-38" points="37.35 262.15 28.27 278.94 28.27 287.63 35.73 284.87 37.35 262.15"/><path class="cls-39" d="M35.73,284.87l23.07-3.48q0-1.85,0-3.64l-21.45-15.6Z"/><path class="cls-40" d="M58.8,277.75c0-3.89,0-7.52,0-10.81l-21.47-4.79Z"/><polygon class="cls-41" points="28.27 295.62 28.27 307.56 42.53 309.75 28.27 295.62"/><polygon class="cls-42" points="35.73 284.87 28.27 287.63 28.27 295.62 42.53 309.75 35.73 284.87"/><path class="cls-43" d="M42.53,309.75l16.26-23.09c0-1.8,0-3.56,0-5.27l-23.07,3.48Z"/><path class="cls-44" d="M58.77,309.08c0-7.79,0-15.38,0-22.42L42.53,309.75Z"/><polygon class="cls-45" points="28.27 307.56 28.27 315.53 36.7 315.53 42.53 309.75 28.27 307.56"/><polygon class="cls-46" points="36.7 315.53 42.17 315.53 42.53 309.75 36.7 315.53"/><polygon class="cls-47" points="42.17 315.53 47.77 315.53 42.53 309.75 42.17 315.53"/><path class="cls-48" d="M42.53,309.75l5.24,5.78h11q0-3.24,0-6.45Z"/><g class="cls-49"><path class="cls-2" d="M409.12,46.3l4.07,1.86A4.3,4.3,0,0,0,409.12,46.3Z"/><path class="cls-3" d="M391.91,50.85a48.87,48.87,0,0,0,.83-10,4.89,4.89,0,0,0-4.92-4.43l-.47,16.07Z"/><path class="cls-4" d="M387.83,36.38a5.6,5.6,0,0,0-5.35,3.27A33.15,33.15,0,0,0,380.59,47l6.78,5.49Z"/><path class="cls-5" d="M367.92,47.45c-1.57-6.52-10.39-5.74-10.62,2.53l.6,7.87,11.36-2.09A38.17,38.17,0,0,0,367.92,47.45Z"/><path class="cls-5" d="M380.59,47c-.33,2.18-.54,4.44-.74,6.86h0l7.52-1.38Z"/><path class="cls-6" d="M430,77l0,.05,6.65.19C435.47,75.21,432.78,74.38,430,77Z"/><path class="cls-7" d="M411.85,63.75c.93-3.25,2.29-7.12,2.43-10.49a7.59,7.59,0,0,0-1.09-5.1l-4.07-1.86a4.9,4.9,0,0,0-1.62.48l3.55,22.56C411.35,67.48,411.62,65.61,411.85,63.75Z"/><path class="cls-8" d="M391.55,56.51c0-.95,0-1.89,0-2.84s.2-1.81.35-2.82l-4.55,1.59Z"/><path class="cls-8" d="M411.06,69.34l-3.55-22.56a6.45,6.45,0,0,0-3.19,4c-.9,4-2,8.07-2.86,12.21a21.54,21.54,0,0,1-.37,2.79l9.09,8.83Q410.65,72,411.06,69.34Z"/><path class="cls-9" d="M390.85,70.29c.42-4.6.66-9.18.7-13.77l-4.19-4.07Z"/><path class="cls-9" d="M410.17,74.62l-9.09-8.83c-.92,4.8-3.2,10.05-4.22,15a40.64,40.64,0,0,0-1.47,7.73l14-10Q409.82,76.59,410.17,74.62Z"/><path class="cls-10" d="M390.7,72.05c.06-.59.1-1.17.16-1.76l-3.49-17.84-8,5.79c-.26,2-.57,3.8-1,6.57a155.26,155.26,0,0,0-.5,16.78l12.43,5.65C390.33,84.09,391.07,77.76,390.7,72.05Z"/><path class="cls-10" d="M372.66,79.19c-.52-2.13-1-4.31-1.5-6.54-.34-2.53-.59-5.17-.86-7.79L359.1,73Z"/><path class="cls-11" d="M370.31,64.86c-.22-2.12-.45-4.23-.76-6.22-.11-.94-.19-1.9-.28-2.88l-11.36,2.09.3,3.94c.41,3.64.39,7,.58,10L359.1,73Z"/><path class="cls-11" d="M379.85,53.82c-.13,1.76-.28,3.13-.44,4.41l8-5.79Z"/><path class="cls-12" d="M358.79,71.79c0,.34,0,.68.08,1l.23.21Z"/><path class="cls-13" d="M358.87,72.81c0,.09,0,.19,0,.29l.21-.07Z"/><path class="cls-14" d="M425.91,101.3c3.7-6.58,9.46-13.17,10.87-19.51a5.21,5.21,0,0,0-.16-4.5L430,77.1c-2.29,2.68-8.68,12.51-13.63,18.12-.3.33-.61.67-.92,1L418,111.68C419.68,108.71,425,103.81,425.91,101.3Z"/><path class="cls-15" d="M418,111.68l-2.53-15.44a56.47,56.47,0,0,0-4.6,6,2.63,2.63,0,0,1-2.86.38l9.66,9.7A6,6,0,0,1,418,111.68Z"/><path class="cls-15" d="M405,96.71c1.28-5.06,3.59-11.2,3.84-15.17.2-1,.39-2,.59-3l-14,10q-.07.66-.14,1.33l10.21,10.26A4.49,4.49,0,0,1,405,96.71Z"/><path class="cls-16" d="M417.32,112.87a1.28,1.28,0,0,1,.25-.42l.06-.12-9.66-9.7a5.42,5.42,0,0,1-2.5-2.51L395.25,89.85l-.08.77a3.81,3.81,0,0,1-.52,2l.7,20.8Z"/><path class="cls-17" d="M394.66,92.59c-.8,1-2.29-.73-3.23-2.21L361,102.53c-.11,1.2-.22,2.08-.27,2.37s-.1.38-.15.58l34.76,7.91Z"/><path class="cls-18" d="M390.78,89.22c-.29-.14-.4-.87-.41-2l-12.43-5.65q.07,4.07.27,8.2c-1.92.73-3.48-2.9-4.25-5.62-.45-1.63-.88-3.29-1.29-5L359.1,73,359,74.1a23.06,23.06,0,0,0,.4,2.48,119.53,119.53,0,0,0,1.87,15,69.39,69.39,0,0,1-.27,11l30.42-12.15A12.51,12.51,0,0,1,390.78,89.22Z"/><path class="cls-19" d="M358.89,73.09c0,.34.07.67.11,1l.1-1.08Z"/><path class="cls-20" d="M331.5,92.5a5.06,5.06,0,0,0-1.49.09l.93,7.7a18.32,18.32,0,0,1,3.14,2.71,81.43,81.43,0,0,1,4.12,8l13.11-4.75C347.62,98.51,341,93.47,331.5,92.5Z"/><path class="cls-21" d="M328.22,98.21c.78.67,1.75,1.37,2.72,2.08l-.93-7.7C326.92,93.28,326.68,97,328.22,98.21Z"/><path class="cls-22" d="M413.21,132.13c.28-2.47.52-4.94.79-7.41,1.06-3.54,2.55-10.11,3.31-11.85l-22,.52Z"/><path class="cls-23" d="M380.13,129.82,412.26,139c.4-2.31.7-4.59,1-6.87l-17.86-18.74Z"/><path class="cls-24" d="M395.36,113.39l-34.76-7.91c-.23.94-.44,2-.67,3l20.21,21.37Z"/><path class="cls-25" d="M380.13,129.82l-20.21-21.37c-.6,2.67-1.36,5.28-3.13,6.19a5.55,5.55,0,0,1-1.78-1.35l-3.07,23.77Z"/><path class="cls-26" d="M355,113.29a19.89,19.89,0,0,1-2.85-5.1c-.27-.68-.56-1.33-.86-2L338.19,111a180.69,180.69,0,0,1,6.73,17.43l7,8.66Z"/><path class="cls-27" d="M344.92,128.4c.34,1,.65,2,.92,2.83a26.94,26.94,0,0,0,2.54,5.35l3.55.48Z"/><path class="cls-28" d="M405.49,159.31l.92-2.28a59.13,59.13,0,0,0,4.7-12.58l-28.85,6.31Z"/><path class="cls-29" d="M382.26,150.76l28.85-6.31c.46-1.84.83-3.65,1.14-5.45l-32.12-9.18Z"/><polygon class="cls-30" points="351.94 137.06 382.26 150.76 380.13 129.82 351.94 137.06"/><path class="cls-31" d="M351.94,137.06l1,6.14c2.81,3.75,5.57,7.1,6.64,9.34a27.41,27.41,0,0,1,3.53,9.21l19.17-11Z"/><path class="cls-32" d="M348.38,136.58a76.31,76.31,0,0,0,4.53,6.62l-1-6.14Z"/><polygon class="cls-33" points="401.87 182.25 401.87 174.62 390.52 183.54 401.87 182.25"/><polygon class="cls-34" points="390.52 183.54 401.87 174.62 401.87 168.26 405.49 159.31 382.26 150.76 390.52 183.54"/><path class="cls-35" d="M382.26,150.76l-19.17,11a28,28,0,0,1,.57,5s0,.9,0,2.56l26.86,14.21Z"/><path class="cls-36" d="M363.66,169.34c0,3.58,0,10.73,0,20.2l26.83-6Z"/><polygon class="cls-37" points="401.87 204.53 401.87 182.25 390.52 183.54 401.87 204.53"/><polygon class="cls-38" points="392.55 211.94 401.87 215.39 401.87 204.53 390.52 183.54 392.55 211.94"/><path class="cls-39" d="M390.52,183.54,363.71,203q0,2.23,0,4.55l28.83,4.35Z"/><path class="cls-40" d="M363.69,189.54c0,4.1,0,8.64,0,13.51l26.82-19.5Z"/><polygon class="cls-41" points="401.87 240.31 401.87 225.38 384.04 243.04 401.87 240.31"/><polygon class="cls-42" points="384.04 243.04 401.87 225.38 401.87 215.39 392.55 211.94 384.04 243.04"/><path class="cls-43" d="M392.55,211.94l-28.83-4.35q0,3.22,0,6.59L384,243Z"/><path class="cls-44" d="M363.72,214.18c0,8.79,0,18.29,0,28L384,243Z"/><polygon class="cls-45" points="401.87 260.71 401.87 240.31 384.04 243.04 401.87 260.71"/><polygon class="cls-46" points="385.45 265.25 401.87 269.84 401.87 260.71 384.04 243.04 385.45 265.25"/><polygon class="cls-47" points="384.04 243.04 365.63 263.35 385.45 265.25 384.04 243.04"/><path class="cls-48" d="M384,243l-20.3-.84c0,5.76,0,11.59,0,17.41l1.87,3.73Z"/><path class="cls-50" d="M363.76,259.62q0,2.35,0,4.7l1.87-1Z"/><polygon class="cls-51" points="401.87 293.62 401.87 280.62 388.68 288.02 401.87 293.62"/><polygon class="cls-52" points="388.68 288.02 401.87 280.62 401.87 269.84 385.45 265.25 388.68 288.02"/><polygon class="cls-53" points="365.63 263.35 388.68 288.02 385.45 265.25 365.63 263.35"/><path class="cls-54" d="M365.63,263.35l-1.87,6.7c0,8.75,0,17.33,0,25.41l24.9-7.43Z"/><path class="cls-55" d="M363.76,264.32q0,2.87,0,5.73l1.87-6.7Z"/><polygon class="cls-56" points="401.83 315.53 401.87 315.53 401.87 315.48 401.83 315.53"/><polygon class="cls-57" points="401.87 293.62 388.68 288.02 390.16 315.53 401.83 315.53 401.87 315.48 401.87 293.62"/><path class="cls-58" d="M363.77,315.32v.2h26.39L388.68,288Z"/><path class="cls-59" d="M363.77,295.46c0,7.1,0,13.79,0,19.87L388.68,288Z"/></g><g class="cls-49"><polygon class="cls-6" points="204.56 301.7 221.49 315.53 221.74 315.53 221.74 303.61 204.56 301.7"/><polygon class="cls-7" points="200.36 315.53 221.49 315.53 204.56 301.7 200.36 315.53"/><polygon class="cls-8" points="185.71 315.53 200.36 315.53 204.56 301.7 185.71 315.53"/><path class="cls-9" d="M191.23,289.13l-7.6,22.06q0,2.32,0,4.33h2.1l18.85-13.82Z"/><path class="cls-10" d="M183.64,291.38c0,7.44,0,14.24,0,19.82l7.6-22.06Z"/><polygon class="cls-60" points="221.74 285.17 221.74 272.75 213.78 272.02 221.74 285.17"/><polygon class="cls-14" points="204.56 301.7 221.74 303.61 221.74 285.17 213.78 272.02 204.56 301.7"/><polygon class="cls-15" points="191.23 289.13 204.56 301.7 213.78 272.02 191.23 289.13"/><polygon class="cls-16" points="194.75 268.9 191.23 289.13 213.78 272.02 194.75 268.9"/><path class="cls-17" d="M194.75,268.9l-11.12,1c0,5.07,0,10.1,0,14.95l7.59,4.33Z"/><path class="cls-18" d="M183.64,284.8q0,3.36,0,6.58l7.59-2.25Z"/><polygon class="cls-61" points="221.74 272.75 221.74 262.75 213.78 272.02 221.74 272.75"/><polygon class="cls-62" points="213.78 272.02 221.74 262.75 221.74 248.87 220.89 248.15 213.78 272.02"/><polygon class="cls-22" points="220.89 248.15 194.75 268.9 213.78 272.02 220.89 248.15"/><polygon class="cls-23" points="183.91 253.35 194.75 268.9 220.89 248.15 183.91 253.35"/><path class="cls-24" d="M183.91,253.35l-.3.24c0,5.34,0,10.82,0,16.26l11.12-1Z"/><path class="cls-25" d="M183.61,253.22v.37l.3-.24Z"/><polygon class="cls-63" points="221.74 248.87 221.74 247.62 220.89 248.15 221.74 248.87"/><polygon class="cls-64" points="220.89 248.15 221.74 247.62 221.74 229.93 218.12 229.54 220.89 248.15"/><polygon class="cls-28" points="218.12 229.54 188.15 236.06 220.89 248.15 218.12 229.54"/><polygon class="cls-29" points="188.15 236.06 183.91 253.35 220.89 248.15 188.15 236.06"/><path class="cls-30" d="M188.15,236.06l-4.56,1.34c0,5,0,10.33,0,15.83l.3.12Z"/><path class="cls-31" d="M183.58,232.51q0,2.37,0,4.88l4.56-1.34Z"/><polygon class="cls-65" points="221.74 229.93 221.74 223.66 218.12 229.54 221.74 229.93"/><polygon class="cls-33" points="218.12 229.54 221.74 223.66 221.74 215.43 198.9 209.54 218.12 229.54"/><polygon class="cls-34" points="198.9 209.54 188.15 236.06 218.12 229.54 198.9 209.54"/><path class="cls-35" d="M198.9,209.54l-15.36,5.57c0,4.49,0,10.49,0,17.4l4.57,3.54Z"/><path class="cls-36" d="M183.31,203.7a24.15,24.15,0,0,1,.22,2.89s0,3.19,0,8.52l15.36-5.57Z"/><path class="cls-66" d="M227.2,194.95a58.5,58.5,0,0,0,2.57-6.49l-11.16-5.7Z"/><path class="cls-67" d="M223.35,204.09l2.93-7.26c.32-.63.62-1.27.92-1.89l-8.59-12.18Z"/><polygon class="cls-37" points="198.9 209.54 221.74 215.43 221.74 208.08 223.35 204.09 218.61 182.76 198.9 209.54"/><polygon class="cls-38" points="203.92 185.98 198.9 209.54 218.61 182.76 203.92 185.98"/><path class="cls-39" d="M203.92,186l-28.63.31,1.29,1.7,22.33,21.54Z"/><path class="cls-40" d="M176.58,188a30,30,0,0,1,2.85,4.34,28.55,28.55,0,0,1,3.88,11.36l15.6,5.84Z"/><path class="cls-68" d="M233.22,170.67q.16-1.49.31-3l-1.42.72Z"/><path class="cls-69" d="M218.61,182.76l11.16,5.7a84.39,84.39,0,0,0,3.45-17.79l-1.11-2.26Z"/><polygon class="cls-41" points="232.11 168.41 200.43 158.92 218.61 182.76 232.11 168.41"/><polygon class="cls-42" points="200.43 158.92 203.92 185.98 218.61 182.76 200.43 158.92"/><path class="cls-43" d="M200.43,158.92,175.08,186l.21.28,28.63-.31Z"/><path class="cls-44" d="M175.82,156.52l-1,29.18.24.32,25.36-27.1Z"/><path class="cls-70" d="M165.08,169.09l.63,1.95c1.54,4.81,5.7,10.2,9.12,14.67l1-29.18Z"/><path class="cls-71" d="M159.84,154.87c2.14,5.15,3.94,10.29,5.23,14.22l10.75-12.57Z"/><path class="cls-72" d="M237.43,152.26c1.09-2.81,7.38-8.4,8.35-11.15.6-1.07,1.26-2.14,1.95-3.21l-13.47-.63c-.95,1.14-1.88,2.35-2.71,3.53l5.78,11.61A.63.63,0,0,1,237.43,152.26Z"/><path class="cls-73" d="M233.53,167.69c.11-1.05.22-2.11.33-3.16,1.13-3.77,2.74-11,3.45-12.13l-5.78-11.61c-.3.42-.59.84-.86,1.25a3,3,0,0,1-.58.38l2,26Z"/><path class="cls-45" d="M232.11,168.41l-2-26c-1.7.83-3.6-.45-4.63-2.23l-25,18.73Z"/><path class="cls-46" d="M200.43,158.92l25-18.73a5.41,5.41,0,0,1-.76-2.48l-20.5,2.76Z"/><polygon class="cls-47" points="187.38 139.75 200.43 158.92 204.21 140.48 187.38 139.75"/><polygon class="cls-48" points="175.82 156.52 200.43 158.92 187.38 139.75 175.82 156.52"/><path class="cls-50" d="M187.38,139.75l-6.12-4.36a86.31,86.31,0,0,1-.65,9.31c-.95,3.46-1.37,8.42-4,9.74a5.57,5.57,0,0,1-1.75-1.32l.92,3.39Z"/><path class="cls-74" d="M174.9,153.13A19.76,19.76,0,0,1,172,148a24.09,24.09,0,0,0-10.28-12.45l-6,10.53c1.46,2.77,2.83,5.78,4.08,8.79l16,1.65Z"/><path class="cls-75" d="M151.36,132.31c-4.48-.33-5,4.35-3.28,5.71,1.77,1.52,4.57,3.22,5.85,4.8.62,1,1.23,2.13,1.82,3.26l6-10.53A25.64,25.64,0,0,0,151.36,132.31Z"/><path class="cls-76" d="M252.7,130.25c.73-1.17,1.4-2.35,2-3.51l-4.34-.72Z"/><path class="cls-77" d="M252.7,130.25,250.35,126l-11.94,6.37c-.75.94-1.49,1.84-2.2,2.64s-1.3,1.44-2,2.23l13.47.63C249.36,135.33,251.14,132.78,252.7,130.25Z"/><path class="cls-78" d="M245.43,122.9c-2.13,3-4.64,6.5-7,9.49L250.35,126Z"/><path class="cls-51" d="M210.42,122.41c0-.29,0-.58,0-.88l-.89.24Z"/><path class="cls-51" d="M228.72,121.35q.51-2.49,1-5l-12.78,3.43c-.06.27-.13.54-.18.8a34.68,34.68,0,0,0-1.21,5.68l10.07,7.65C226.87,129.49,228.5,124.66,228.72,121.35Z"/><path class="cls-52" d="M204.21,140.48l20.5-2.76a3.4,3.4,0,0,1,.16-1.19c.21-.84.45-1.71.71-2.59l-10.07-7.65c-.19,1.39-.34,2.79-.47,4.15-.38,5.1-3.58.29-4.4-1.41-.6-.29-.43-3-.23-6.62l-.84-.64Z"/><polygon class="cls-53" points="209.57 121.77 187.38 139.75 204.21 140.48 209.57 121.77"/><path class="cls-54" d="M187.38,139.75l22.2-18-11.8-5.4c0,4.35.09,8.76.3,13.22-1.92.73-3.48-2.9-4.25-5.62-.94-3.4-1.78-6.92-2.58-10.59l-7.86-3.59Z"/><path class="cls-55" d="M183.38,109.8l-4.48,4.42c.1.74.21,1.47.37,2.17a119.12,119.12,0,0,0,1.87,15,39.64,39.64,0,0,1,.12,4l6.12,4.36Z"/><path class="cls-79" d="M178.47,107.36c.1,2.46.16,4.74.43,6.86l4.48-4.42Z"/><path class="cls-80" d="M254.7,126.74a22.11,22.11,0,0,0,1.95-5.14c1.71-4.19-2-8.47-6.06-5.34l-.23,9.75Z"/><path class="cls-81" d="M250.58,116.26a7.55,7.55,0,0,0-.7.6c-.92,1.06-2.53,3.34-4.45,6l4.92,3.12Z"/><path class="cls-56" d="M231.71,103.56c.88-3.09,2.14-6.72,2.39-10l-9.93-3c-.55,2.42-1.18,4.89-1.79,7.39l8.26,12.88C231,108.46,231.42,106,231.71,103.56Z"/><path class="cls-57" d="M230.65,110.91,222.39,98c-.38,1.58-.75,3.18-1.07,4.78-.31,5.26-3.09,11.29-4.41,17l12.78-3.43Q230.2,113.64,230.65,110.91Z"/><path class="cls-57" d="M210.46,121.53c.09-1.66.18-3.48.2-5.33l-1.09,5.57Z"/><path class="cls-58" d="M210.66,116.2c0-1.45,0-2.91-.1-4.34a162.4,162.4,0,0,0,.87-18.38c.11-1.39.38-3,.65-4.79L200,90c-.12,1.17-.22,2.36-.32,3.6-.34,4.53-.75,6.45-1.41,11,0,.21,0,.42-.05.64l11.32,16.52Z"/><path class="cls-59" d="M191.23,113.39l-.21-.93c-.62-4.59-.92-9.56-1.61-14-.26-2.31-.41-4.8-.74-7.14l-5.3,18.48Z"/><path class="cls-59" d="M198.25,105.25c-.31,3.65-.46,7.36-.48,11.12l11.8,5.4Z"/><path class="cls-82" d="M188.68,91.32h0L178,100.46l.09,1.14c.22,2,.32,3.93.39,5.76l4.91,2.44Z"/><path class="cls-83" d="M188.68,91.29,177.6,87.14a9.6,9.6,0,0,0-.43,2.65l.82,10.67,10.69-9.16Z"/><path class="cls-84" d="M234.15,93.07c.72-8.51-7.88-9.14-10-2.47v0l9.93,3C234.12,93.42,234.14,93.24,234.15,93.07Z"/><path class="cls-85" d="M212.61,80.62c-1.11-6.33-8.86-5.11-10.27-1.16-.06.16-.11.31-.17.47L212.42,86A34.37,34.37,0,0,0,212.61,80.62Z"/><path class="cls-86" d="M212.42,86l-10.25-6.12A39.85,39.85,0,0,0,200,90l12-1.34C212.2,87.84,212.32,87,212.42,86Z"/><path class="cls-87" d="M187.79,87.27c-1.38-5.74-8.37-5.82-10.19-.12l11.08,4.15A22.94,22.94,0,0,0,187.79,87.27Z"/></g><g class="cls-49"><polygon class="cls-88" points="77.06 298.52 77.06 315.53 79.86 315.53 90.59 298.94 77.06 298.52"/><polygon class="cls-89" points="79.86 315.53 95.94 315.53 90.59 298.94 79.86 315.53"/><path class="cls-90" d="M115.17,298.92l-24.58,0,5.34,16.59h11.53l7.72-10.17C115.17,303.34,115.17,301.18,115.17,298.92Z"/><path class="cls-91" d="M107.46,315.53h7.74c0-2.78,0-6.21,0-10.17Z"/><polygon class="cls-92" points="77.06 279.88 77.06 292.09 91.79 282.79 77.06 279.88"/><polygon class="cls-93" points="91.79 282.79 77.06 292.09 77.06 298.52 90.59 298.94 91.79 282.79"/><path class="cls-94" d="M90.59,298.94l24.58,0q0-1.37,0-2.8L91.79,282.79Z"/><path class="cls-95" d="M115.17,296.12c0-6.37,0-13.52,0-21l-23.38,7.72Z"/><polygon class="cls-96" points="77.06 269.08 77.06 279.88 91.79 282.79 77.06 269.08"/><polygon class="cls-97" points="95.95 244.62 77.06 252.3 77.06 269.08 91.79 282.79 95.95 244.62"/><path class="cls-98" d="M91.79,282.79l23.38-7.72q0-1.06,0-2.13L95.95,244.62Z"/><path class="cls-99" d="M115.17,272.94c0-7.14,0-14.59,0-22l-19.23-6.31Z"/><polygon class="cls-100" points="77.06 232.66 77.06 252.3 95.95 244.62 77.06 232.66"/><polygon class="cls-101" points="92.54 235.91 77.06 231.63 77.06 232.66 95.95 244.62 92.54 235.91"/><path class="cls-102" d="M95.95,244.62l19.25-8.72q0-1.18,0-2.34l-22.66,2.35Z"/><path class="cls-103" d="M115.18,250.93c0-5.05,0-10.09,0-15l-19.25,8.72Z"/><polygon class="cls-104" points="77.06 203.09 77.06 227.79 98.14 205.64 77.06 203.09"/><polygon class="cls-105" points="98.14 205.64 77.06 227.79 77.06 231.63 92.54 235.91 98.14 205.64"/><path class="cls-106" d="M92.54,235.91l22.66-2.35q0-4.26,0-8.38L98.14,205.64Z"/><path class="cls-107" d="M115.21,225.18c0-7.14,0-13.85,0-19.78l-17.1.23Z"/><polygon class="cls-108" points="75.5 178.75 75.88 179.69 76.45 178.66 75.5 178.75"/><polygon class="cls-109" points="76.45 178.66 75.88 179.69 77.06 182.63 77.06 203.09 98.14 205.64 76.45 178.66"/><polygon class="cls-110" points="76.45 178.66 98.14 205.64 89.81 177.8 76.45 178.66"/><path class="cls-111" d="M98.14,205.64l17.17-25.42c0-.35.06-.8.11-1.32l-25.61-1.1Z"/><path class="cls-112" d="M115.24,205.4c0-14.45,0-24.26,0-24.26s0-.35,0-.93L98.14,205.64Z"/><path class="cls-113" d="M67,155.22c.07.38.15.75.23,1.13l1.44-1.5Z"/><path class="cls-114" d="M68.7,154.85l-1.44,1.5a60,60,0,0,0,5.27,15l3,7.36,1-.09Z"/><polygon class="cls-115" points="68.7 154.85 76.45 178.66 88.86 160.72 68.7 154.85"/><polygon class="cls-112" points="88.86 160.72 76.45 178.66 89.81 177.8 88.86 160.72"/><path class="cls-116" d="M89.81,177.8l25.61,1.1c0-.14,0-.29,0-.44L88.86,160.72Z"/><path class="cls-117" d="M115.47,178.46a28.63,28.63,0,0,1,3.91-11.56c.07-.14.16-.29.24-.44l-30.76-5.73Z"/><path class="cls-118" d="M66.6,152.93c.13.76.27,1.53.42,2.29l1.67-.38Z"/><path class="cls-119" d="M70,131.77l-6.11,3.42c.37,1.43.74,2.81,1.06,3.89.5,4.62.89,9.19,1.67,13.85l2.09,1.92Z"/><polygon class="cls-120" points="69.98 131.77 68.7 154.85 88.86 160.72 69.98 131.77"/><polygon class="cls-121" points="98.46 135.31 69.98 131.77 88.86 160.72 98.46 135.31"/><polygon class="cls-122" points="88.86 160.72 108.71 142.89 98.46 135.31 88.86 160.72"/><path class="cls-123" d="M88.86,160.72l30.76,5.73a27.85,27.85,0,0,1,1.92-3l-12.82-20.61Z"/><path class="cls-124" d="M121.54,163.5c2-2.77,4.8-6.19,7.21-9.74l-20-10.87Z"/><path class="cls-125" d="M128.75,153.76a33.66,33.66,0,0,0,4.34-8.17c.68-2.12,1.56-4.78,2.6-7.69l-27,5Z"/><path class="cls-126" d="M52.88,115.41l.15.25c1,2.75,7.26,8.34,8.35,11.15a10.9,10.9,0,0,1,1.08,3L67.13,124Z"/><path class="cls-127" d="M67.13,124l-4.67,5.84c.43,1.56.93,3.51,1.41,5.36L70,131.77Z"/><polygon class="cls-128" points="67.13 123.99 69.98 131.77 97.58 119.22 67.13 123.99"/><polygon class="cls-129" points="97.58 119.22 69.98 131.77 98.46 135.31 97.58 119.22"/><polygon class="cls-130" points="108.71 142.89 97.58 119.22 98.46 135.31 108.71 142.89"/><polygon class="cls-131" points="113.96 108.6 97.58 119.22 108.71 142.89 113.96 108.6"/><path class="cls-132" d="M108.71,142.89l12.4-14.73c-1.68-2-2.11-6-2.91-8.89a85.21,85.21,0,0,1-.66-10.47l-3.58-.2Z"/><path class="cls-132" d="M127.87,120.12l7.52-8.94A23.75,23.75,0,0,0,127.87,120.12Z"/><path class="cls-133" d="M135.7,137.9c1.53-4.28,3.41-9.1,5.53-13.61l-4.54-14c-.44.27-.88.55-1.3.85l-7.52,8.94c-.39.79-.77,1.59-1.1,2.44-1.69,3.8-2.67,5.5-4.62,6.44a3.49,3.49,0,0,1-1-.85l-12.4,14.73Z"/><path class="cls-134" d="M144.87,117.38c1.28-1.58,4.08-3.28,5.85-4.8a2.15,2.15,0,0,0,.57-.71l-14-1.92-.64.39,4.54,14A77.35,77.35,0,0,1,144.87,117.38Z"/><path class="cls-135" d="M42.16,96.15c1.26,5.68,6,11.56,9.65,17.45L45.71,89.75C42.8,89.49,40.81,92.85,42.16,96.15Z"/><path class="cls-136" d="M48.92,91.41a5.39,5.39,0,0,0-3.21-1.67L51.8,113.6l.67,1.11,8.66-6.86C56.43,102.12,51,93.77,48.92,91.41Z"/><path class="cls-136" d="M69.85,94.69c.08.41.16.81.24,1.22a25.28,25.28,0,0,0,.75,4.28l4.68-3.7Z"/><path class="cls-137" d="M69.21,117.16a2.76,2.76,0,0,1-1.09-.56,56.11,56.11,0,0,0-5.53-7c-.47-.54-1-1.12-1.45-1.72l-8.66,6.86.4.69L67.13,124Z"/><path class="cls-137" d="M70.84,100.19c.47,1.9,1.1,4,1.71,6l3-9.73Z"/><path class="cls-138" d="M97.58,119.22,85.66,106.94c-.9.66-1.72.48-1.9-1.95h0l-8.25-8.5-3,9.73c.5,1.66,1,3.32,1.38,4.87.9,2.68-2,6.75-4.71,6.08L67.13,124Z"/><path class="cls-139" d="M100.9,95.17l-12.57.65c.23,4.19.5,7.44-.16,7.76a10.84,10.84,0,0,1-2.5,3.35l11.92,12.28Z"/><path class="cls-139" d="M83.76,105a53.84,53.84,0,0,0-1.4-8.85l-6.84.35Z"/><path class="cls-140" d="M97.58,119.22,114,108.6l-9.17-9.43c-.82,2.61-2.29,5.64-4.06,5,.14-3,.24-5.93.28-8.86l-.12-.12Z"/><path class="cls-141" d="M101,95.29s0-.06,0-.08l-.12,0Z"/><path class="cls-141" d="M114.05,98.81l-8.52-2.36c-.18.69-.36,1.39-.55,2.07l-.2.65L114,108.6Z"/><path class="cls-142" d="M114,108.6l3.58.2c0-1,0-2,.13-2.87.31-1.65.57-3.3.81-4.95l-4.42-2.17Z"/><path class="cls-143" d="M118.48,101q.28-1.91.5-3.82l-4.92,1.65Z"/><path class="cls-144" d="M147.44,106.87a25.79,25.79,0,0,0-10.11,3.08l14,1.92C152.25,110,151.32,106.58,147.44,106.87Z"/><path class="cls-145" d="M64.71,68.26q.07.82.21,1.66l1.5-1.27Z"/><path class="cls-146" d="M66.42,68.66l-1.5,1.27a78.35,78.35,0,0,0,2.17,8.19c.67,5.52,1.65,11,2.76,16.57l5.67,1.8Z"/><path class="cls-147" d="M87.38,68.36q0,2.39,0,4.77l2.45-4.8Z"/><path class="cls-147" d="M75.51,96.49,80,87.75c-1.15-3.58-2.29-7.13-2.48-10.38-.59-3-1.35-5.93-2.06-8.84l-9,.13Z"/><path class="cls-148" d="M89.86,68.32l-2.45,4.8c.1,4.43.38,8.85.83,13.29a80.33,80.33,0,0,0,.08,9.41l12.57-.65Z"/><path class="cls-148" d="M82.36,96.13c-.09-.33-.18-.65-.28-1A73.44,73.44,0,0,0,80,87.75l-4.45,8.74Z"/><path class="cls-149" d="M100.9,95.17,101,95a152.17,152.17,0,0,0-.52-15.82c-.65-4.41-1-6.36-1.38-10.65l-9.26-.2Z"/><path class="cls-149" d="M109.79,68.75c-.14,1.44-.25,2.88-.41,4.25-.55,3.5-.85,7.3-1.26,11l9.77-15.08Z"/><path class="cls-150" d="M117.89,68.93,108.13,84c-.11,1-.22,2-.36,3-.7,3.26-1.44,6.4-2.23,9.45l8.52,2.36Z"/><path class="cls-150" d="M101,95.21c0-.07,0-.15,0-.22l-.12.19Z"/><path class="cls-151" d="M114.05,98.81,119,97.16c.24-2.07.44-4.15.55-6.22,1-4.17.56-9.12,1.19-14.79l.36-4.67-3.19-2.56Z"/><polygon class="cls-152" points="121.08 71.49 121.22 69.63 117.89 68.93 121.08 71.49"/><path class="cls-153" d="M65.57,62.78a7.83,7.83,0,0,0-.92,4.84c0,.21,0,.42.05.64l1.71.4Z"/><path class="cls-154" d="M87.16,66.21c.09.64.17,1.26.21,1.83,0,.11,0,.21,0,.32l2.48,0Z"/><path class="cls-154" d="M75.42,68.53c-.28-1.13-.55-2.26-.8-3.37-1.57-5-6.86-5.91-9-2.37l.85,5.87Z"/><path class="cls-155" d="M94,51.44C91.21,50,87,50.62,86.19,55.17a55.52,55.52,0,0,0,1,11l2.69,2.11Z"/><path class="cls-156" d="M98.68,63.79A37.3,37.3,0,0,0,96.46,54,4.81,4.81,0,0,0,94,51.44L89.86,68.32Z"/><path class="cls-157" d="M115.83,57.47A5.22,5.22,0,0,0,111,61.82a32.1,32.1,0,0,0-1.22,6.93l8.1.18Z"/><path class="cls-157" d="M99.12,68.52l0-.33c-.12-1.52-.25-3-.41-4.4l-8.82,4.53Z"/><path class="cls-158" d="M121.58,65l0-.63c-.13-4.69-3-7-5.8-6.87l2.06,11.45Z"/><polygon class="cls-159" points="121.22 69.63 121.58 64.98 117.89 68.93 121.22 69.63"/></g><g class="cls-49"><polygon class="cls-6" points="443.89 315.53 451.68 315.53 442.67 314.53 443.89 315.53"/><polygon class="cls-7" points="442.36 315.53 443.89 315.53 442.67 314.53 442.36 315.53"/><polygon class="cls-8" points="441.31 315.53 442.36 315.53 442.67 314.53 441.31 315.53"/><polygon class="cls-9" points="430.67 303.21 426.42 315.53 441.31 315.53 442.67 314.53 430.67 303.21"/><path class="cls-10" d="M423.84,305.24c0,3.63,0,7.08,0,10.29h2.59l4.24-12.31Z"/><polygon class="cls-60" points="458.12 299.64 458.12 288.47 450.96 287.81 458.12 299.64"/><polygon class="cls-14" points="450.96 287.81 442.67 314.53 451.68 315.53 458.12 315.53 458.12 299.64 450.96 287.81"/><polygon class="cls-15" points="442.67 314.53 450.96 287.81 430.67 303.21 442.67 314.53"/><polygon class="cls-16" points="430.67 303.21 450.96 287.81 433.83 285 430.67 303.21"/><path class="cls-17" d="M433.83,285l-10,.86c0,4.56,0,9.09,0,13.46l6.83,3.9Z"/><path class="cls-18" d="M423.83,299.31c0,2,0,4,0,5.92l6.83-2Z"/><polygon class="cls-61" points="458.12 288.47 458.12 279.47 450.96 287.81 458.12 288.47"/><polygon class="cls-62" points="450.96 287.81 458.12 279.47 458.12 266.97 457.36 266.33 450.96 287.81"/><polygon class="cls-22" points="433.83 285 450.96 287.81 457.36 266.33 433.83 285"/><polygon class="cls-23" points="424.08 271.01 433.83 285 457.36 266.33 424.08 271.01"/><path class="cls-24" d="M424.08,271l-.27.22c0,4.8,0,9.74,0,14.63l10-.86Z"/><path class="cls-25" d="M423.81,270.89v.33l.27-.22Z"/><polygon class="cls-63" points="458.12 266.97 458.12 265.86 457.36 266.33 458.12 266.97"/><polygon class="cls-64" points="457.36 266.33 458.12 265.86 458.12 249.93 454.87 249.58 457.36 266.33"/><polygon class="cls-28" points="454.87 249.58 427.89 255.44 457.36 266.33 454.87 249.58"/><polygon class="cls-29" points="427.89 255.44 424.08 271.01 457.36 266.33 427.89 255.44"/><path class="cls-30" d="M427.89,255.44l-4.11,1.21c0,4.49,0,9.3,0,14.25l.27.11Z"/><path class="cls-31" d="M423.78,252.26q0,2.14,0,4.39l4.11-1.21Z"/><polygon class="cls-65" points="458.12 249.93 458.12 244.29 454.87 249.58 458.12 249.93"/><polygon class="cls-33" points="454.87 249.58 458.12 244.29 458.12 236.88 437.57 231.58 454.87 249.58"/><polygon class="cls-34" points="437.57 231.58 427.89 255.44 454.87 249.58 437.57 231.58"/><path class="cls-35" d="M437.57,231.58l-13.82,5c0,4,0,9.44,0,15.66l4.11,3.19Z"/><path class="cls-36" d="M423.54,226.33a21.63,21.63,0,0,1,.2,2.6s0,2.88,0,7.67l13.82-5Z"/><path class="cls-66" d="M463,218.44a52.34,52.34,0,0,0,2.31-5.84l-10-5.13Z"/><path class="cls-67" d="M459.57,226.68l2.64-6.53c.29-.57.56-1.14.82-1.7l-7.73-11Z"/><polygon class="cls-37" points="437.57 231.58 458.12 236.88 458.12 230.26 459.57 226.68 455.31 207.48 437.57 231.58"/><polygon class="cls-38" points="442.09 210.38 437.57 231.58 455.31 207.48 442.09 210.38"/><path class="cls-39" d="M442.09,210.38l-25.77.28,1.16,1.53,20.1,19.39Z"/><path class="cls-40" d="M417.48,212.19A27,27,0,0,1,420,216.1a25.69,25.69,0,0,1,3.5,10.22l14,5.26Z"/><path class="cls-68" d="M468.46,196.6q.15-1.34.28-2.68l-1.28.65Z"/><path class="cls-69" d="M455.31,207.48l10,5.13a75.89,75.89,0,0,0,3.11-16l-1-2Z"/><polygon class="cls-41" points="467.46 194.57 438.95 186.03 455.31 207.48 467.46 194.57"/><polygon class="cls-42" points="438.95 186.03 442.09 210.38 455.31 207.48 438.95 186.03"/><path class="cls-43" d="M438.95,186l-22.82,24.39.19.25,25.77-.28Z"/><path class="cls-44" d="M416.8,183.86l-.89,26.27.22.28L438.95,186Z"/><path class="cls-70" d="M407.13,195.18l.57,1.75c1.39,4.33,5.13,9.18,8.21,13.2l.89-26.27Z"/><path class="cls-71" d="M402.42,182.38c1.93,4.64,3.54,9.26,4.71,12.79l9.67-11.31Z"/><path class="cls-72" d="M472.24,180c1-2.53,6.64-7.56,7.52-10,.54-1,1.14-1.93,1.75-2.89l-12.12-.57c-.85,1-1.69,2.12-2.44,3.18l5.2,10.45A.6.6,0,0,1,472.24,180Z"/><path class="cls-73" d="M468.74,193.92c.1-.95.19-1.9.3-2.85,1-3.39,2.47-9.86,3.11-10.91l-5.2-10.45c-.27.38-.53.76-.77,1.13a2.66,2.66,0,0,1-.53.34l1.81,23.39Z"/><path class="cls-45" d="M467.46,194.57l-1.81-23.39c-1.53.75-3.24-.4-4.16-2L438.95,186Z"/><path class="cls-46" d="M438.95,186l22.54-16.85a4.86,4.86,0,0,1-.68-2.23l-18.45,2.48Z"/><polygon class="cls-47" points="427.2 168.77 438.95 186.03 442.35 169.42 427.2 168.77"/><polygon class="cls-48" points="416.8 183.86 438.95 186.03 427.2 168.77 416.8 183.86"/><path class="cls-50" d="M427.2,168.77l-5.5-3.92a77.89,77.89,0,0,1-.59,8.38c-.85,3.11-1.23,7.58-3.56,8.77a5,5,0,0,1-1.58-1.19l.83,3.05Z"/><path class="cls-74" d="M416,180.81a17.78,17.78,0,0,1-2.59-4.61A21.69,21.69,0,0,0,404.13,165l-5.39,9.48c1.31,2.5,2.54,5.21,3.67,7.92l14.38,1.48Z"/><path class="cls-75" d="M394.78,162.08c-4-.3-4.53,3.91-3,5.14s4.11,2.9,5.27,4.32c.56.93,1.11,1.91,1.64,2.93l5.39-9.48A23.06,23.06,0,0,0,394.78,162.08Z"/><path class="cls-76" d="M486,160.22c.65-1.06,1.26-2.11,1.79-3.16l-3.91-.65Z"/><path class="cls-77" d="M486,160.22l-2.12-3.81-10.75,5.74c-.68.85-1.34,1.65-2,2.38s-1.17,1.3-1.76,2l12.12.57C483,164.79,484.59,162.5,486,160.22Z"/><path class="cls-78" d="M479.45,153.6c-1.92,2.7-4.17,5.85-6.32,8.54l10.75-5.74Z"/><path class="cls-51" d="M447.93,153.16c0-.26,0-.52,0-.79l-.8.21Z"/><path class="cls-51" d="M464.4,152.21q.45-2.25.88-4.49l-11.5,3.09c-.06.24-.11.48-.16.72a31.34,31.34,0,0,0-1.09,5.11l9.06,6.88C462.74,159.53,464.21,155.19,464.4,152.21Z"/><path class="cls-52" d="M442.35,169.42l18.45-2.48a3,3,0,0,1,.15-1.07c.19-.75.41-1.54.64-2.33l-9.06-6.88c-.17,1.25-.31,2.51-.43,3.74-.35,4.59-3.22.26-4-1.26-.54-.26-.39-2.7-.2-6l-.76-.57Z"/><polygon class="cls-53" points="447.18 152.59 427.2 168.77 442.35 169.42 447.18 152.59"/><path class="cls-54" d="M427.2,168.77l20-16.18-10.62-4.86c0,3.91.08,7.89.27,11.9-1.73.65-3.13-2.61-3.83-5.06-.85-3.06-1.6-6.23-2.32-9.53l-7.07-3.23Z"/><path class="cls-55" d="M423.6,141.81l-4,4c.09.67.19,1.33.33,2a107,107,0,0,0,1.68,13.49,35.87,35.87,0,0,1,.11,3.62l5.5,3.92Z"/><path class="cls-79" d="M419.18,139.62c.09,2.21.14,4.27.39,6.17l4-4Z"/><path class="cls-80" d="M487.79,157.06a19.9,19.9,0,0,0,1.75-4.62c1.54-3.77-1.76-7.62-5.46-4.8l-.21,8.78Z"/><path class="cls-81" d="M484.08,147.63a6.81,6.81,0,0,0-.63.54c-.83,1-2.28,3-4,5.44l4.43,2.8Z"/><path class="cls-56" d="M467.1,136.2c.79-2.78,1.92-6,2.15-9l-8.94-2.66c-.49,2.18-1.06,4.4-1.61,6.65l7.43,11.59C466.5,140.61,466.83,138.4,467.1,136.2Z"/><path class="cls-57" d="M466.14,142.81l-7.43-11.59c-.34,1.43-.68,2.86-1,4.3-.28,4.73-2.78,10.16-4,15.29l11.5-3.09C465.59,146.09,465.87,144.45,466.14,142.81Z"/><path class="cls-57" d="M448,152.37c.08-1.5.16-3.13.18-4.8l-1,5Z"/><path class="cls-58" d="M448.16,147.57c0-1.3,0-2.62-.09-3.9a145.84,145.84,0,0,0,.78-16.54c.1-1.25.34-2.71.58-4.31L438.59,124c-.11,1-.2,2.13-.29,3.24-.31,4.07-.67,5.81-1.27,9.88,0,.19,0,.38,0,.57l10.19,14.87Z"/><path class="cls-59" d="M430.67,145l-.18-.83c-.55-4.13-.82-8.6-1.45-12.6-.23-2.08-.37-4.32-.66-6.42l-4.77,16.63Z"/><path class="cls-59" d="M437,137.72c-.28,3.28-.41,6.62-.43,10l10.62,4.86Z"/><path class="cls-82" d="M428.37,125.18h0l-9.62,8.24.08,1c.2,1.81.29,3.54.35,5.18l4.42,2.19Z"/><path class="cls-83" d="M428.37,125.16l-10-3.73a8.62,8.62,0,0,0-.38,2.39l.74,9.6,9.62-8.24Z"/><path class="cls-84" d="M469.29,126.76c.65-7.66-7.1-8.23-9-2.22v0l8.94,2.66C469.26,127.07,469.29,126.91,469.29,126.76Z"/><path class="cls-85" d="M449.91,115.55c-1-5.7-8-4.6-9.24-1-.05.14-.1.28-.15.42l9.22,5.5A31.11,31.11,0,0,0,449.91,115.55Z"/><path class="cls-86" d="M449.74,120.43l-9.22-5.5a35.86,35.86,0,0,0-1.92,9.1l10.83-1.21C449.54,122.05,449.65,121.26,449.74,120.43Z"/><path class="cls-87" d="M427.57,121.53c-1.25-5.16-7.54-5.23-9.17-.11l10,3.73A20.8,20.8,0,0,0,427.57,121.53Z"/></g><g class="cls-49"><polygon class="cls-97" points="306.38 311.3 306.38 315.53 322.16 315.53 323.38 304.38 306.38 311.3"/><polygon class="cls-98" points="322.16 315.53 330.94 315.53 323.38 304.38 322.16 315.53"/><path class="cls-99" d="M323.38,304.38l7.56,11.14h9.74q0-2.73,0-5.47Z"/><polygon class="cls-100" points="306.38 293.63 306.38 311.3 323.38 304.38 306.38 293.63"/><polygon class="cls-101" points="320.31 296.55 306.38 292.7 306.38 293.63 323.38 304.38 320.31 296.55"/><path class="cls-102" d="M323.38,304.38l17.32-7.85q0-1.06,0-2.11l-20.39,2.12Z"/><path class="cls-103" d="M340.69,310.06c0-4.55,0-9.08,0-13.52l-17.32,7.85Z"/><polygon class="cls-104" points="306.38 267.01 306.38 289.24 325.35 269.3 306.38 267.01"/><polygon class="cls-105" points="325.35 269.3 306.38 289.24 306.38 292.7 320.31 296.55 325.35 269.3"/><path class="cls-106" d="M320.31,296.55l20.39-2.12c0-2.56,0-5.07,0-7.54L325.35,269.3Z"/><path class="cls-107" d="M340.71,286.89c0-6.43,0-12.47,0-17.8l-15.39.21Z"/><polygon class="cls-108" points="304.97 245.11 305.31 245.95 305.83 245.03 304.97 245.11"/><polygon class="cls-109" points="305.83 245.03 305.31 245.95 306.38 248.6 306.38 267.01 325.35 269.3 305.83 245.03"/><polygon class="cls-110" points="305.83 245.03 325.35 269.3 317.85 244.25 305.83 245.03"/><path class="cls-111" d="M325.35,269.3l15.45-22.88c0-.32.05-.72.1-1.19l-23-1Z"/><path class="cls-112" d="M340.74,269.09c0-13,0-21.83,0-21.83s0-.31,0-.84L325.35,269.3Z"/><path class="cls-113" d="M297.34,223.93c.07.34.14.68.21,1l1.3-1.36Z"/><path class="cls-114" d="M298.85,223.59l-1.3,1.36a54,54,0,0,0,4.74,13.54l2.68,6.63.86-.08Z"/><polygon class="cls-115" points="298.85 223.59 305.83 245.03 317 228.88 298.85 223.59"/><polygon class="cls-112" points="317 228.88 305.83 245.03 317.85 244.25 317 228.88"/><path class="cls-116" d="M317.85,244.25l23,1c0-.13,0-.26,0-.4l-24-16Z"/><path class="cls-117" d="M340.95,244.84a25.77,25.77,0,0,1,3.52-10.4c.06-.12.14-.27.22-.4L317,228.88Z"/><path class="cls-118" d="M297,221.87q.17,1,.38,2.06l1.51-.34Z"/><path class="cls-119" d="M300,202.82l-5.5,3.08c.34,1.29.67,2.52,1,3.5.45,4.16.8,8.27,1.5,12.47l1.89,1.72Z"/><polygon class="cls-120" points="300.01 202.82 298.85 223.59 317 228.88 300.01 202.82"/><polygon class="cls-121" points="325.64 206.01 300.01 202.82 317 228.88 325.64 206.01"/><polygon class="cls-122" points="317 228.88 334.87 212.82 325.64 206.01 317 228.88"/><path class="cls-123" d="M317,228.88,344.68,234a24.8,24.8,0,0,1,1.73-2.66l-11.54-18.55Z"/><path class="cls-124" d="M346.41,231.38c1.8-2.49,4.32-5.57,6.49-8.77l-18-9.78Z"/><path class="cls-125" d="M352.9,222.61a30.23,30.23,0,0,0,3.91-7.35c.61-1.91,1.41-4.3,2.35-6.92l-24.29,4.49Z"/><path class="cls-126" d="M284.61,188.1l.13.23c.87,2.48,6.53,7.51,7.52,10a9.84,9.84,0,0,1,1,2.71l4.21-5.26Z"/><path class="cls-127" d="M297.44,195.82l-4.21,5.26c.39,1.4.84,3.16,1.27,4.83l5.5-3.08Z"/><polygon class="cls-128" points="297.44 195.82 300.01 202.82 324.84 191.53 297.44 195.82"/><polygon class="cls-129" points="324.84 191.53 300.01 202.82 325.64 206.01 324.84 191.53"/><polygon class="cls-130" points="334.87 212.82 324.84 191.53 325.64 206.01 334.87 212.82"/><polygon class="cls-131" points="339.59 181.97 324.84 191.53 334.87 212.82 339.59 181.97"/><path class="cls-132" d="M334.87,212.83,346,199.56c-1.52-1.76-1.9-5.36-2.62-8a76.78,76.78,0,0,1-.59-9.42l-3.22-.18Z"/><path class="cls-132" d="M352.11,192.34l6.77-8A21.37,21.37,0,0,0,352.11,192.34Z"/><path class="cls-133" d="M359.15,208.34c1.38-3.85,3.07-8.19,5-12.25L360,183.53q-.6.36-1.17.76l-6.77,8c-.35.71-.69,1.43-1,2.2-1.52,3.42-2.4,5-4.16,5.8a3.17,3.17,0,0,1-.93-.77l-11.16,13.26Z"/><path class="cls-134" d="M367.4,189.87c1.16-1.42,3.67-3,5.27-4.32a1.94,1.94,0,0,0,.52-.64l-12.57-1.73-.57.35,4.08,12.56A69.71,69.71,0,0,1,367.4,189.87Z"/><path class="cls-135" d="M275,170.76c1.13,5.11,5.41,10.4,8.68,15.71L278.16,165C275.54,164.77,273.75,167.8,275,170.76Z"/><path class="cls-136" d="M281.05,166.5a4.85,4.85,0,0,0-2.89-1.5l5.49,21.47.61,1,7.8-6.17C287.81,176.14,282.89,168.63,281.05,166.5Z"/><path class="cls-136" d="M299.88,169.45c.07.37.14.73.22,1.1a22.67,22.67,0,0,0,.67,3.85l4.21-3.33Z"/><path class="cls-137" d="M299.31,189.67a2.47,2.47,0,0,1-1-.5,50.73,50.73,0,0,0-5-6.32c-.43-.48-.87-1-1.31-1.55l-7.8,6.17.36.62,12.83,7.72Z"/><path class="cls-137" d="M300.78,174.4c.42,1.71,1,3.57,1.54,5.42l2.67-8.76Z"/><path class="cls-138" d="M324.84,191.52l-10.72-11c-.81.59-1.55.43-1.71-1.76h0L305,171.07l-2.67,8.76c.45,1.49.89,3,1.24,4.38.81,2.41-1.82,6.08-4.24,5.47l-1.87,6.14Z"/><path class="cls-139" d="M327.83,169.89l-11.32.58c.2,3.78.45,6.7-.15,7a9.77,9.77,0,0,1-2.25,3l10.72,11Z"/><path class="cls-139" d="M312.41,178.71a48.69,48.69,0,0,0-1.26-8l-6.16.32Z"/><path class="cls-140" d="M324.84,191.52,339.59,182l-8.25-8.48c-.74,2.35-2.06,5.08-3.65,4.48.12-2.68.21-5.33.25-8l-.1-.11Z"/><path class="cls-141" d="M327.94,170s0-.05,0-.08l-.1,0Z"/><path class="cls-141" d="M339.67,173.16,332,171c-.16.63-.33,1.25-.5,1.87l-.18.58,8.25,8.48Z"/><path class="cls-142" d="M339.59,182l3.22.18c0-.92,0-1.8.11-2.58.27-1.48.51-3,.73-4.45l-4-2Z"/><path class="cls-143" d="M343.65,175.11q.25-1.72.45-3.44l-4.43,1.49Z"/><path class="cls-144" d="M369.72,180.41a23.26,23.26,0,0,0-9.1,2.77l12.57,1.73C374,183.27,373.21,180.15,369.72,180.41Z"/><path class="cls-145" d="M295.26,145.67c0,.49.1,1,.19,1.5L296.8,146Z"/><path class="cls-146" d="M296.8,146l-1.35,1.14a71,71,0,0,0,2,7.37c.6,5,1.49,9.94,2.48,14.91l5.1,1.62Z"/><path class="cls-147" d="M315.66,145.75q0,2.15,0,4.29l2.2-4.32Z"/><path class="cls-147" d="M305,171.07l4-7.87a39.77,39.77,0,0,1-2.23-9.34c-.53-2.68-1.21-5.34-1.85-8l-8.1.12Z"/><path class="cls-148" d="M317.9,145.72l-2.2,4.32c.09,4,.34,8,.75,12a72.2,72.2,0,0,0,.08,8.47l11.32-.58Z"/><path class="cls-148" d="M311.15,170.75c-.08-.29-.16-.59-.25-.88a66.13,66.13,0,0,0-1.9-6.67l-4,7.87Z"/><path class="cls-149" d="M327.83,169.89l.11-.17a136.86,136.86,0,0,0-.46-14.24c-.58-4-.94-5.72-1.25-9.58l-8.33-.18Z"/><path class="cls-149" d="M335.84,146.1c-.12,1.29-.23,2.59-.37,3.83-.49,3.15-.77,6.57-1.13,9.9l8.79-13.57Z"/><path class="cls-150" d="M343.13,146.26l-8.79,13.57c-.1.91-.2,1.82-.32,2.7-.63,2.94-1.29,5.76-2,8.5l7.66,2.12Z"/><path class="cls-150" d="M327.94,169.91c0-.06,0-.13,0-.2l-.11.17Z"/><path class="cls-151" d="M339.67,173.16l4.43-1.49c.22-1.86.4-3.73.5-5.6.86-3.76.5-8.21,1.07-13.31l.32-4.2-2.87-2.31Z"/><polygon class="cls-152" points="346 148.57 346.13 146.9 343.13 146.26 346 148.57"/><path class="cls-153" d="M296,140.73a7,7,0,0,0-.83,4.36c0,.19,0,.38,0,.57l1.54.36Z"/><path class="cls-154" d="M315.47,143.81c.08.58.15,1.14.19,1.65,0,.09,0,.19,0,.29l2.23,0Z"/><path class="cls-154" d="M304.91,145.9c-.25-1-.5-2-.72-3-1.41-4.54-6.17-5.32-8.14-2.14l.77,5.29Z"/><path class="cls-155" d="M321.67,130.53c-2.56-1.31-6.35-.74-7.07,3.35a50.06,50.06,0,0,0,.87,9.93l2.42,1.9Z"/><path class="cls-156" d="M325.83,141.64a33.55,33.55,0,0,0-2-8.81,4.33,4.33,0,0,0-2.17-2.31l-3.77,15.19Z"/><path class="cls-157" d="M341.27,136a4.7,4.7,0,0,0-4.34,3.91,29,29,0,0,0-1.1,6.24l7.29.16Z"/><path class="cls-157" d="M326.23,145.9c0-.1,0-.2,0-.3-.11-1.37-.23-2.68-.37-4l-7.94,4.07Z"/><path class="cls-158" d="M346.44,142.71l0-.57c-.12-4.22-2.72-6.27-5.22-6.18l1.86,10.31Z"/><polygon class="cls-159" points="346.13 146.9 346.44 142.71 343.13 146.26 346.13 146.9"/></g><g class="cls-49"><path class="cls-160" d="M311.2,57.2a23.57,23.57,0,0,0-4.5,1.89L308,62.86Z"/><path class="cls-161" d="M319.16,62.41l.71-.57c1.75-1.36,1.2-6-3.28-5.71a28.15,28.15,0,0,0-5.39,1.07L308,62.86Z"/><path class="cls-162" d="M311.28,71.67c.88-1.77,1.79-3.46,2.73-5,1.12-1.38,3.41-2.86,5.15-4.22L308,62.86Z"/><path class="cls-163" d="M304.94,81.22l1.83.78c1.35-3.45,2.86-7,4.51-10.34L308,62.86Z"/><path class="cls-6" d="M305.09,86.47c.52-1.45,1.08-2.94,1.68-4.47l-1.83-.78Z"/><path class="cls-164" d="M290.7,14.48l.07-.87c-.1-3.71-1.93-5.9-4.06-6.62l-1.06,8.71Z"/><polygon class="cls-165" points="290.28 20.01 290.7 14.48 285.65 15.71 290.28 20.01"/><path class="cls-166" d="M282.65,25.57,289.72,27c0-.53.09-1.06.15-1.6l.41-5.41-4.63-4.3Z"/><path class="cls-167" d="M288.21,45.58c.2-1.79.36-3.58.46-5.38.86-3.77.63-8.19,1-13.18l-7.06-1.46Z"/><path class="cls-168" d="M287,65.21c-.06-.73-.12-1.54-.17-2.38l-.53,3.08Z"/><path class="cls-169" d="M306.69,59.09a22.27,22.27,0,0,0-6,4.79l7.28-1Z"/><path class="cls-169" d="M287,65.8c0-.19,0-.39-.05-.59l-.69.7Z"/><path class="cls-170" d="M287.11,66.58q0-.36-.07-.77l-.74.1Z"/><path class="cls-170" d="M308,62.86l-7.28,1a26.32,26.32,0,0,0-4.78,7.94c-.23.52-.45,1-.66,1.45l9.69,8Z"/><path class="cls-14" d="M280.41,86.73l24.53-5.5-9.69-8c-1.32,2.8-2.28,4.19-4,5-2.59-1.33-3-6.28-4-9.74,0-.26-.13-1-.23-1.95l-.81-.67Z"/><polygon class="cls-60" points="304.94 81.22 280.41 86.73 281.06 100.64 304.94 81.22"/><path class="cls-14" d="M281.06,100.64l16.59,2.72a34.6,34.6,0,0,0,4.58-8.51c.73-2.29,1.7-5.2,2.85-8.38l-.15-5.25Z"/><path class="cls-15" d="M291.76,111.29c1.79-2.37,3.95-5.1,5.9-7.93l-16.59-2.72Z"/><path class="cls-16" d="M280.7,116.07l7.72.26.1-.17a33.49,33.49,0,0,1,3.24-4.86l-10.7-10.65Z"/><path class="cls-17" d="M284.42,132.4c0-1.3,0-2,0-2a29.57,29.57,0,0,1,4-14.08l-7.72-.26Z"/><path class="cls-20" d="M284.38,159.05c0-3.6,0-6.94,0-10l-3.46,9.56Z"/><path class="cls-21" d="M284.37,166.85c0-2.71,0-5.31,0-7.8l-3.45-.42Z"/><path class="cls-97" d="M284.33,213.49c0-4.06,0-8.08,0-12L279.21,214Z"/><path class="cls-98" d="M284.33,217.52c0-1.34,0-2.69,0-4l-5.12.56Z"/><path class="cls-99" d="M284.32,229.62c0-4,0-8.08,0-12.1L279.21,214Z"/><path class="cls-171" d="M284.31,252.53c0-4,0-8.09,0-12.21l-3.5,11.85Z"/><path class="cls-172" d="M284.31,260.78q0-4.06,0-8.25l-3.49-.35Z"/><path class="cls-173" d="M284.31,280.34c0-.2,0-.4,0-.6l-.15.53Z"/><path class="cls-174" d="M284.31,280.48v-.13l-.15-.07Z"/><path class="cls-175" d="M284.31,281.41v-.93l-.15-.21Z"/><path class="cls-176" d="M286.71,7a4.89,4.89,0,0,0-5.9,2.39l4.84,6.32Z"/><path class="cls-177" d="M280.81,9.38a6.67,6.67,0,0,0-.65,1.7,24.13,24.13,0,0,0-.94,4.46l6.44.17Z"/><path class="cls-177" d="M268,15.25a52.62,52.62,0,0,0-1.36-8.67l-5,8.5Z"/><path class="cls-178" d="M285.65,15.71l-6.44-.17c-.29,2.22-.44,4.55-.68,6.73-.06.38-.1.77-.15,1.16l4.28,2.14Z"/><path class="cls-178" d="M268.31,18.38c0-.3,0-.61-.07-.94-.06-.75-.12-1.48-.19-2.2l-6.32-.16Z"/><path class="cls-179" d="M278.37,23.42c-.29,2.06-.52,4.19-.74,6.34l5-4.2Z"/><path class="cls-179" d="M270,33.81c-.09-1.81-.2-3.61-.36-5.38-.61-4.2-1-6.16-1.34-10l-6.58-3.29Z"/><path class="cls-180" d="M288.21,45.58l-5.56-20-5,4.2c-.22,2.19-.44,4.39-.72,6.51-.24,1.09-.47,2.17-.72,3.24l11.72,8.6C288,47.27,288.12,46.42,288.21,45.58Z"/><path class="cls-181" d="M287.92,48.11l-11.72-8.6c-.65,2.85-1.33,5.61-2.07,8.28a20.22,20.22,0,0,1-1.08,3l14.72-1.57C287.82,48.82,287.88,48.46,287.92,48.11Z"/><path class="cls-182" d="M286.82,62.83a55.26,55.26,0,0,1,0-7.64c.37-2,.69-4,1-6L273,50.74A8.7,8.7,0,0,1,272,52.51l14.31,13.4Z"/><path class="cls-183" d="M286.3,65.91,272,52.51a2.51,2.51,0,0,1-1.32,1l1.55,14.1Z"/><polygon class="cls-184" points="286.3 65.91 272.22 67.57 280.41 86.73 286.3 65.91"/><polygon class="cls-185" points="280.41 86.73 272.22 67.57 265.69 90.78 280.41 86.73"/><polygon class="cls-61" points="281.06 100.64 280.41 86.73 265.69 90.78 281.06 100.64"/><polygon class="cls-62" points="261.37 97.65 281.06 100.64 265.69 90.78 261.37 97.65"/><polygon class="cls-22" points="280.7 116.07 281.06 100.64 261.37 97.65 280.7 116.07"/><polygon class="cls-23" points="269.57 126.38 280.7 116.07 261.37 97.65 269.57 126.38"/><path class="cls-24" d="M269.57,126.38l14.83,14c0-3.58,0-6.31,0-8l-3.72-16.33Z"/><path class="cls-25" d="M264.68,145.46l19.72-2.55c0-.87,0-1.71,0-2.51l-14.83-14Z"/><path class="cls-26" d="M280.93,158.64l3.46-9.56c0-2.23,0-4.29,0-6.17l-19.72,2.55Z"/><polygon class="cls-27" points="264.68 145.46 266.2 156.73 280.93 158.64 264.68 145.46"/><polygon class="cls-186" points="266.2 156.73 273.86 179.37 280.93 158.64 266.2 156.73"/><path class="cls-187" d="M273.86,179.37l10.5-3.57q0-4.63,0-8.95l-3.44-8.21Z"/><path class="cls-188" d="M284.35,185.8c0-3.42,0-6.76,0-10l-10.5,3.57Z"/><path class="cls-189" d="M268.18,196.62l16.17-5.87q0-2.5,0-5l-10.49-6.42Z"/><path class="cls-100" d="M279.21,214l5.13-12.61c0-3.62,0-7.19,0-10.68l-16.17,5.87Z"/><polygon class="cls-101" points="279.21 214.04 268.18 196.62 272.25 211.32 279.21 214.04"/><polygon class="cls-102" points="269.8 234.81 279.21 214.04 272.25 211.32 269.8 234.81"/><path class="cls-103" d="M269.8,234.81l14.51-.12q0-2.53,0-5.08L279.21,214Z"/><path class="cls-190" d="M270.07,248.87l14.25-12.7q0-.74,0-1.47l-14.51.12Z"/><path class="cls-41" d="M280.82,252.17l3.5-11.85q0-2.08,0-4.16l-14.25,12.7Z"/><polygon class="cls-191" points="270.07 248.87 260.71 260.97 280.82 252.17 270.07 248.87"/><path class="cls-192" d="M260.71,261l23.6,6.79v-7l-3.49-8.6Z"/><path class="cls-193" d="M284.15,280.27l.15-.53v-12L260.71,261Z"/><polygon class="cls-194" points="260.71 260.97 265.88 287.3 284.15 280.27 260.71 260.97"/><polygon class="cls-195" points="265.88 287.3 269.57 300.3 284.15 280.27 265.88 287.3"/><path class="cls-196" d="M269.57,300.3l14.76,6.43c0-6.78,0-15.45,0-25.32l-.15-1.14Z"/><path class="cls-197" d="M284.33,306.73l-14.76-6.43-6,15.23h10.57l10.15-5.33Q284.34,308.56,284.33,306.73Z"/><path class="cls-198" d="M274.19,315.53h10.17c0-1.54,0-3.32,0-5.33Z"/><path class="cls-199" d="M255.34,4.43a36.48,36.48,0,0,0,.31,6.44l9.79-7.95C263.71-.74,256.41-1.71,255.34,4.43Z"/><path class="cls-200" d="M266.69,6.59a29.19,29.19,0,0,0-1.08-3.32,3.76,3.76,0,0,0-.16-.35l-9.79,7.95c0,.21,0,.42.08.62l6,3.61Z"/><path class="cls-201" d="M255.72,11.48c.3,2.2.67,4.16.79,5.81,0,2.12,0,4.22.08,6.33l5.13-8.54Z"/><path class="cls-202" d="M270,33.81l-8.28-18.72-5.13,8.54q.16,5.32.66,10.65l12.81,1.17Q270,34.63,270,33.81Z"/><path class="cls-203" d="M270.07,35.45l-12.81-1.17c0,.46.08.93.13,1.39a78.28,78.28,0,0,0,.06,9.05L270.09,36C270.08,35.81,270.08,35.63,270.07,35.45Z"/><path class="cls-204" d="M270.09,36l-12.64,8.75c.07,1.35.15,2.61.2,3.71L270,50.94C270.18,45.88,270.25,40.88,270.09,36Z"/><path class="cls-205" d="M270,51.23c0-.1,0-.2,0-.3l-12.33-2.49c.12,2.47.12,4.18-.35,4.41-.82,1.69-4,6.51-4.4,1.4-.15-1.56-.32-3.16-.56-4.74l-7,13.51Z"/><path class="cls-206" d="M272.22,67.57l-1.55-14.1a1.36,1.36,0,0,1-.8-.05c0-.73.06-1.45.09-2.18L245.38,63Z"/><polygon class="cls-207" points="245.38 63.03 246.24 79.63 272.22 67.57 245.38 63.03"/><polygon class="cls-208" points="272.22 67.57 246.24 79.63 265.69 90.78 272.22 67.57"/><polygon class="cls-63" points="265.69 90.78 246.24 79.63 261.37 97.65 265.69 90.78"/><polygon class="cls-64" points="246.24 79.63 246.93 101.91 261.37 97.65 246.24 79.63"/><polygon class="cls-28" points="246.93 101.91 255.4 124.93 261.37 97.65 246.93 101.91"/><polygon class="cls-29" points="261.37 97.65 255.4 124.93 269.57 126.38 261.37 97.65"/><polygon class="cls-30" points="255.4 124.93 264.68 145.46 269.57 126.38 255.4 124.93"/><polygon class="cls-31" points="255.4 124.93 246.21 140.98 246.21 142.52 264.68 145.46 255.4 124.93"/><polygon class="cls-32" points="264.68 145.46 246.21 142.52 246.21 142.94 266.2 156.73 264.68 145.46"/><polygon class="cls-209" points="246.21 142.94 246.21 159.96 266.2 156.73 246.21 142.94"/><polygon class="cls-210" points="246.21 159.96 246.21 169.31 266.2 156.73 246.21 159.96"/><polygon class="cls-211" points="266.2 156.73 246.21 169.31 246.21 170.86 273.86 179.37 266.2 156.73"/><polygon class="cls-212" points="246.21 170.86 246.21 187.73 273.86 179.37 246.21 170.86"/><polygon class="cls-213" points="273.86 179.37 246.21 187.73 246.21 188.73 268.18 196.62 273.86 179.37"/><polygon class="cls-104" points="268.18 196.62 246.21 188.73 246.21 200.71 248.03 215.8 268.18 196.62"/><polygon class="cls-105" points="268.18 196.62 248.03 215.8 272.25 211.32 268.18 196.62"/><polygon class="cls-106" points="272.25 211.32 248.03 215.8 269.8 234.81 272.25 211.32"/><polygon class="cls-107" points="248.03 215.8 247.8 232.17 269.8 234.81 248.03 215.8"/><polygon class="cls-214" points="247.8 232.17 270.07 248.87 269.8 234.81 247.8 232.17"/><polygon class="cls-215" points="247.8 232.17 246.21 235.85 246.21 243.66 270.07 248.87 247.8 232.17"/><polygon class="cls-216" points="270.07 248.87 246.21 243.66 246.21 246.15 260.71 260.97 270.07 248.87"/><polygon class="cls-217" points="260.71 260.97 246.21 246.15 246.21 252.57 248.83 260.69 260.71 260.97"/><polygon class="cls-218" points="248.83 260.69 252.26 281.38 260.71 260.97 248.83 260.69"/><polygon class="cls-219" points="252.26 281.38 265.88 287.3 260.71 260.97 252.26 281.38"/><polygon class="cls-220" points="252.26 281.38 246.21 304.52 246.21 307.1 265.88 287.3 252.26 281.38"/><polygon class="cls-221" points="265.88 287.3 246.21 307.1 246.21 307.73 269.57 300.3 265.88 287.3"/><polygon class="cls-222" points="246.21 307.73 246.21 308.87 253.37 315.53 263.61 315.53 269.57 300.3 246.21 307.73"/><polygon class="cls-223" points="246.21 315.53 253.37 315.53 246.21 308.87 246.21 315.53"/><path class="cls-224" d="M234.1,13.42l1.32-2.26A5.35,5.35,0,0,0,234.1,13.42Z"/><path class="cls-225" d="M235.42,11.15l-1.32,2.26a8.62,8.62,0,0,0-.34,2.63l9.8-2.21C241.95,9.77,237.77,8.82,235.42,11.15Z"/><path class="cls-226" d="M246.62,26.63c-.82-4.14-2-8.23-2.86-12.21-.06-.2-.13-.4-.21-.59L233.76,16c0,.27,0,.55,0,.84s0,.58.07.87l13.34,12.72A23.91,23.91,0,0,1,246.62,26.63Z"/><path class="cls-227" d="M247.21,30.48,233.87,17.76a57.61,57.61,0,0,0,2.36,9.61c.08.64.17,1.28.26,1.91l11.32,3.53C247.59,32,247.39,31.25,247.21,30.48Z"/><path class="cls-228" d="M247.81,32.82l-11.32-3.53c.66,5,1.54,9.91,2.54,14.86l9.58-8.7C248.33,34.56,248.06,33.69,247.81,32.82Z"/><path class="cls-229" d="M251.22,44.42c-.61-2.94-1.66-6-2.61-9L239,44.15c.07.34.13.68.2,1s.06.65.1,1L252,47.43A29.1,29.1,0,0,0,251.22,44.42Z"/><path class="cls-230" d="M252.34,49.51q-.16-1-.37-2.08l-12.65-1.28a65.52,65.52,0,0,0,2.32,9.19L245.38,63Z"/><path class="cls-231" d="M241.65,55.35c.51,1.7,1,3.4,1.42,5a4,4,0,0,1-.06,2.47l2.38.21Z"/><path class="cls-232" d="M245.38,63,243,62.81c-.57,1.81-2.14,3.48-3.78,3.66l7,13.16Z"/><path class="cls-233" d="M239.23,66.47a2.58,2.58,0,0,1-2-.61c-.32-.48-.66-1-1-1.47l-4.92,13.74c.67,2.27,1.56,5.94,2.33,8.72l12.58-7.22Z"/><path class="cls-234" d="M246.24,79.63l-12.58,7.22c.15.53.29,1,.43,1.49.29,2.71.55,5.4.87,8.1l.81.56Z"/><polygon class="cls-65" points="235.75 97.01 246.93 101.91 246.24 79.63 235.75 97.01"/><path class="cls-33" d="M235.75,97l-.34,3a70.62,70.62,0,0,0,2.95,12.76l8.57-10.89Z"/><path class="cls-34" d="M246.93,101.9l-8.57,10.89a58.84,58.84,0,0,0,3.31,7.86l.37.91,13.37,3.37Z"/><polygon class="cls-35" points="242.03 121.57 246.21 131.89 246.21 140.98 255.4 124.93 242.03 121.57"/><polygon class="cls-109" points="246.21 200.71 246.21 214.33 248.03 215.8 246.21 200.71"/><polygon class="cls-110" points="246.21 214.33 246.21 215.25 248.03 215.8 246.21 214.33"/><polygon class="cls-111" points="246.21 215.25 246.21 217.03 248.03 215.8 246.21 215.25"/><polygon class="cls-112" points="248.03 215.8 246.21 217.03 246.21 232.03 247.8 232.17 248.03 215.8"/><polygon class="cls-235" points="246.21 232.03 246.21 235.85 247.8 232.17 246.21 232.03"/><polygon class="cls-236" points="246.21 252.57 246.21 258.31 248.83 260.69 246.21 252.57"/><polygon class="cls-237" points="246.21 258.31 246.21 261.26 248.83 260.69 246.21 258.31"/><polygon class="cls-238" points="248.83 260.69 246.21 261.26 246.21 277.39 252.26 281.38 248.83 260.69"/><polygon class="cls-239" points="246.21 277.39 246.21 282.41 252.26 281.38 246.21 277.39"/><polygon class="cls-240" points="246.21 282.41 246.21 288.04 252.26 281.38 246.21 282.41"/><polygon class="cls-241" points="246.21 288.04 246.21 304.52 252.26 281.38 246.21 288.04"/><path class="cls-242" d="M218.06,40.67c-4.38-4.22-8.57.32-6.76,4.74a18,18,0,0,0,.79,2.56l10.7-.87C220.75,44.23,219,41.79,218.06,40.67Z"/><path class="cls-243" d="M231.73,58.84c-2.86-3.23-6.19-7.88-8.95-11.75l-10.7.87A30.7,30.7,0,0,0,214,51.9l19.34,8.71C232.78,60,232.25,59.39,231.73,58.84Z"/><path class="cls-244" d="M233.31,60.62,214,51.9c2.39,4.29,5.74,8.65,8.2,13a10.51,10.51,0,0,0,1.63,2.6L235.21,63C234.6,62.18,234,61.38,233.31,60.62Z"/><path class="cls-245" d="M235.21,63,223.8,67.52c1.18,1.5,2.75,3.22,4.1,4.81l7.83-8.65Z"/><path class="cls-246" d="M235.73,63.68l-7.83,8.65a16.17,16.17,0,0,1,2.62,3.74,6.79,6.79,0,0,1,.8,2.06l4.92-13.74Z"/><path class="cls-67" d="M234.94,96.44l.1.83.71-.26Z"/><path class="cls-37" d="M235,97.27c.11.92.23,1.84.37,2.77l.34-3Z"/></g><g class="cls-49"><path class="cls-2" d="M170.9,171.06l3.26,1.49A3.44,3.44,0,0,0,170.9,171.06Z"/><path class="cls-3" d="M157.13,174.7a39.12,39.12,0,0,0,.66-8,3.91,3.91,0,0,0-3.93-3.54L153.49,176Z"/><path class="cls-4" d="M153.86,163.12a4.48,4.48,0,0,0-4.28,2.61,26.52,26.52,0,0,0-1.51,5.85l5.42,4.39Z"/><path class="cls-5" d="M137.94,172c-1.26-5.22-8.31-4.59-8.49,2l.48,6.3,9.09-1.67A30.51,30.51,0,0,0,137.94,172Z"/><path class="cls-5" d="M148.07,171.58c-.27,1.74-.43,3.55-.59,5.49h0l6-1.1Z"/><path class="cls-6" d="M187.61,195.65l0,0,5.32.15C192,194.18,189.82,193.52,187.61,195.65Z"/><path class="cls-7" d="M173.08,185c.75-2.6,1.83-5.69,1.95-8.39a6.07,6.07,0,0,0-.87-4.08l-3.26-1.49a3.93,3.93,0,0,0-1.29.39l2.84,18C172.68,188,172.9,186.51,173.08,185Z"/><path class="cls-8" d="M156.84,179.23c0-.76,0-1.52,0-2.27s.16-1.44.28-2.26L153.49,176Z"/><path class="cls-8" d="M172.45,189.49l-2.84-18a5.17,5.17,0,0,0-2.55,3.2c-.72,3.18-1.64,6.46-2.29,9.77a17.18,17.18,0,0,1-.29,2.23l7.27,7.07Q172.12,191.6,172.45,189.49Z"/><path class="cls-9" d="M156.28,190.25c.34-3.68.53-7.34.56-11L153.49,176Z"/><path class="cls-9" d="M171.74,193.71l-7.27-7.07c-.73,3.84-2.56,8-3.38,12a32.58,32.58,0,0,0-1.17,6.19l11.23-8Q171.45,195.29,171.74,193.71Z"/><path class="cls-10" d="M156.15,191.66c0-.47.08-.94.13-1.41L153.49,176l-6.36,4.63c-.21,1.61-.45,3-.78,5.25a124,124,0,0,0-.4,13.43l9.94,4.52C155.86,201.29,156.46,196.23,156.15,191.66Z"/><path class="cls-10" d="M141.73,197.37c-.42-1.71-.81-3.44-1.2-5.23-.27-2-.47-4.14-.68-6.23l-9,6.53Z"/><path class="cls-11" d="M139.85,185.9c-.17-1.7-.36-3.38-.61-5-.09-.75-.15-1.52-.22-2.3l-9.09,1.67.24,3.15c.32,2.91.31,5.58.46,8l.25,1Z"/><path class="cls-11" d="M147.47,177.07c-.1,1.41-.22,2.5-.35,3.53l6.36-4.63Z"/><path class="cls-12" d="M130.63,191.45c0,.28,0,.54.06.81l.19.17Z"/><path class="cls-13" d="M130.69,192.26c0,.08,0,.15,0,.23l.17-.06Z"/><path class="cls-14" d="M184.33,215.05c3-5.27,7.57-10.53,8.69-15.61a4.17,4.17,0,0,0-.13-3.6l-5.32-.15c-1.84,2.14-6.94,10-10.9,14.49l-.74.82,2,12.35C179.34,221,183.62,217.07,184.33,215.05Z"/><path class="cls-15" d="M178,223.36l-2-12.35a45.22,45.22,0,0,0-3.68,4.8,2.11,2.11,0,0,1-2.28.31l7.73,7.76A4.59,4.59,0,0,1,178,223.36Z"/><path class="cls-15" d="M167.61,211.39c1-4,2.87-9,3.07-12.14.16-.8.31-1.59.47-2.39l-11.23,8c0,.35-.08.71-.11,1.06L168,214.1A3.6,3.6,0,0,1,167.61,211.39Z"/><path class="cls-16" d="M177.45,224.31a1,1,0,0,1,.2-.34l0-.1L170,216.11a4.34,4.34,0,0,1-2-2l-8.17-8.21-.06.62a3.06,3.06,0,0,1-.42,1.57l.56,16.64Z"/><path class="cls-17" d="M159.32,208.09c-.64.83-1.83-.58-2.58-1.77L132.41,216c-.09,1-.17,1.67-.21,1.9s-.08.3-.12.46l27.81,6.33Z"/><path class="cls-18" d="M156.22,205.39c-.23-.11-.32-.69-.33-1.59l-9.94-4.52q.06,3.25.21,6.56c-1.54.58-2.78-2.32-3.4-4.49-.36-1.3-.7-2.63-1-4l-10.85-4.93-.08.87a18.15,18.15,0,0,0,.32,2,95.54,95.54,0,0,0,1.5,12,55.43,55.43,0,0,1-.21,8.77l24.34-9.72A9.59,9.59,0,0,1,156.22,205.39Z"/><path class="cls-19" d="M130.71,192.49c0,.27.06.54.09.81l.08-.87Z"/><path class="cls-20" d="M108.79,208a4.06,4.06,0,0,0-1.2.08l.75,6.16a14.71,14.71,0,0,1,2.51,2.17,65.38,65.38,0,0,1,3.3,6.37l10.49-3.8C121.7,212.82,116.41,208.79,108.79,208Z"/><path class="cls-21" d="M106.17,212.59c.62.54,1.4,1.1,2.17,1.67l-.75-6.16A2.7,2.7,0,0,0,106.17,212.59Z"/><path class="cls-22" d="M174.17,239.72c.22-2,.41-3.95.63-5.93.85-2.83,2-8.08,2.65-9.48l-17.57.42Z"/><path class="cls-23" d="M147.7,237.87l25.7,7.34c.32-1.85.56-3.67.77-5.5l-14.29-15Z"/><path class="cls-24" d="M159.88,224.73l-27.81-6.33c-.19.75-.35,1.57-.54,2.38l16.17,17.1Z"/><path class="cls-25" d="M147.7,237.87l-16.17-17.1c-.48,2.13-1.09,4.22-2.51,5a4.43,4.43,0,0,1-1.42-1.08l-2.46,19Z"/><path class="cls-26" d="M127.61,224.65a15.92,15.92,0,0,1-2.28-4.08c-.21-.54-.45-1.06-.69-1.58l-10.49,3.8a144.59,144.59,0,0,1,5.38,13.94l5.61,6.92Z"/><path class="cls-27" d="M119.54,236.74c.27.81.52,1.57.74,2.26a21.52,21.52,0,0,0,2,4.28l2.84.38Z"/><path class="cls-28" d="M168,261.46l.74-1.83a47.34,47.34,0,0,0,3.76-10.06l-23.08,5Z"/><path class="cls-29" d="M149.41,254.62l23.08-5c.37-1.47.66-2.92.91-4.36l-25.7-7.34Z"/><polygon class="cls-30" points="125.15 243.66 149.41 254.62 147.7 237.87 125.15 243.66"/><path class="cls-31" d="M125.15,243.66l.78,4.91c2.25,3,4.45,5.68,5.31,7.47a21.92,21.92,0,0,1,2.83,7.37l15.34-8.79Z"/><path class="cls-32" d="M122.31,243.28a61,61,0,0,0,3.62,5.29l-.78-4.91Z"/><polygon class="cls-33" points="165.1 279.82 165.1 273.71 156.02 280.85 165.1 279.82"/><polygon class="cls-34" points="156.02 280.85 165.1 273.71 165.1 268.63 167.99 261.46 149.41 254.62 156.02 280.85"/><path class="cls-35" d="M149.41,254.62l-15.34,8.79a22.4,22.4,0,0,1,.46,4s0,.72,0,2L156,280.85Z"/><path class="cls-36" d="M134.53,269.48c0,2.87,0,8.59,0,16.16L156,280.85Z"/><polygon class="cls-37" points="165.1 297.64 165.1 279.82 156.02 280.85 165.1 297.64"/><polygon class="cls-38" points="157.64 303.57 165.1 306.33 165.1 297.64 156.02 280.85 157.64 303.57"/><path class="cls-39" d="M156,280.85l-21.45,15.6q0,1.78,0,3.64l23.07,3.48Z"/><path class="cls-40" d="M134.55,285.65c0,3.28,0,6.91,0,10.81L156,280.85Z"/><polygon class="cls-41" points="163.88 315.53 165.1 315.53 165.1 314.32 163.88 315.53"/><polygon class="cls-42" points="165.1 306.33 157.64 303.57 154.37 315.53 163.88 315.53 165.1 314.32 165.1 306.33"/><path class="cls-43" d="M134.57,300.09q0,2.57,0,5.27l7.16,10.16h12.64l3.27-12Z"/><path class="cls-44" d="M134.58,315.53h7.15l-7.16-10.16C134.58,308.64,134.58,312,134.58,315.53Z"/></g></g></g></g></g></svg>