<svg xmlns="http://www.w3.org/2000/svg" viewBox="0 0 239.24 59.09"><defs><style>.cls-1{fill:#42b9b6;}.cls-2{fill:#fff;}</style></defs><title>logo</title><g id="Capa_2" data-name="Capa 2"><g id="Capa_1-2" data-name="Capa 1"><polygon class="cls-1" points="143.41 14.77 71.7 14.77 0 14.77 0 59.09 71.7 59.09 143.41 59.09 215.12 59.09 215.41 51.05 214.78 15.52 143.41 14.77"/><polygon class="cls-1" points="215.12 59.09 215.41 15.52 230.93 5.31 239.24 0 239.24 44.55 215.12 59.09"/><polygon class="cls-1" points="23.9 0 0 14.77 161.4 14.91 215.12 14.77 228.32 6.98 239.24 0 23.9 0"/><path class="cls-2" d="M14,40.63V27h1.14V40.63Z"/><path class="cls-2" d="M39.59,34.9a5.7,5.7,0,0,0,1.5-.32c.38-.17.42-.68.42-1,0-1.16-.68-2-2.45-2-1.57,0-2.66.51-2.86,2.22H35c.17-2.31,1.9-3.24,4-3.24s3.57.78,3.57,3.05v5.35c0,.89.23,1.1,1.19.76v.89a3.16,3.16,0,0,1-.89.19,2.22,2.22,0,0,1-.51-.06c-.76-.11-.89-.78-.91-1.46a4.82,4.82,0,0,1-3.66,1.63c-1.73,0-3.28-.93-3.28-2.83,0-1.65,1.14-2.66,3.43-3Zm1.91.57a9.32,9.32,0,0,1-2.94.55c-1.73.13-2.77.76-2.77,2.09s1,1.76,2.13,1.76c1.8,0,3.58-.87,3.58-2.86Z"/><path class="cls-2" d="M86.46,30.81V41.94c0,1.67-.15,2.56-2,2.56a3.21,3.21,0,0,1-.74-.08v-1c1.31.17,1.57-.3,1.57-1.33V30.81Zm.06-2.14H85.26V27h1.25Z"/><path class="cls-2" d="M105.64,35.72c0-2.86,1.52-5.18,4.55-5.18s4.55,2.29,4.55,5.18c0,3.11-1.8,5.18-4.55,5.18C107.69,40.86,105.64,39.15,105.64,35.72Zm4.55-4.15c-2.39,0-3.34,2-3.34,4.15,0,2.45,1.16,4.15,3.34,4.15,2.39,0,3.34-2,3.34-4.15C113.51,33.4,112.6,31.56,110.19,31.56Z"/><path class="cls-2" d="M140.85,33.9a2.88,2.88,0,0,0-2.92-2.33c-2.33,0-3.3,2.13-3.3,4.17s.95,4.13,3.3,4.13a2.88,2.88,0,0,0,3-2.64h1.21a4,4,0,0,1-4.23,3.66c-3.13,0-4.51-2.26-4.51-5.16,0-2.73,1.57-5.2,4.51-5.2,2.26,0,3.74,1.08,4.08,3.36Z"/><path class="cls-2" d="M161.49,40.63V27h1.14v5.2a4.16,4.16,0,0,1,3.17-1.63,3.42,3.42,0,0,1,3,1.4,3.74,3.74,0,0,1,.49,2.26v6.43h-1.14V34.22c0-1.76-.72-2.66-2.54-2.66a2.87,2.87,0,0,0-2.73,1.92,5.07,5.07,0,0,0-.25,1.86v5.29Z"/><path class="cls-2" d="M193.61,34.9a5.7,5.7,0,0,0,1.5-.32c.38-.17.42-.68.42-1,0-1.16-.68-2-2.45-2-1.57,0-2.66.51-2.86,2.22h-1.16c.17-2.31,1.9-3.24,4-3.24s3.57.78,3.57,3.05v5.35c0,.89.23,1.1,1.19.76v.89a3.16,3.16,0,0,1-.89.19,2.22,2.22,0,0,1-.51-.06c-.76-.11-.89-.78-.91-1.46a4.82,4.82,0,0,1-3.66,1.63c-1.73,0-3.28-.93-3.28-2.83,0-1.65,1.14-2.66,3.43-3Zm1.91.57a9.32,9.32,0,0,1-2.94.55c-1.73.13-2.77.76-2.77,2.09s1,1.76,2.13,1.76c1.8,0,3.58-.87,3.58-2.86Z"/></g></g></svg>