<svg xmlns="http://www.w3.org/2000/svg" viewBox="0 0 3977.81 599.44"><defs><style>.cls-1{fill:#231f20;}.cls-2{fill:#414042;}</style></defs><title>mashca</title><g id="Capa_2" data-name="Capa 2"><g id="Layer_1" data-name="Layer 1"><path class="cls-1" d="M0,62.67c58.87-12.53,80.54-5,113.12,46.25C131.6,138,146.53,164.75,163,194.73c14.12-26.79,27.67-50.54,43.51-77.31C240.41,60.09,258,52.54,320.81,61.5c0,90.53-.16,175.92-.12,265.76,0,89.19.16,178.38.25,269.88H240.31c1.53-30,4.22-60.51,4.42-91,.59-93.12.21-186.24.21-279.36V199.44c-26.33,31.66-36.43,68.2-38.32,106-4.34,86.81-6.22,173.74-9,260.62-.33,10.18,0,20.38,0,32H126.05c0-67.56,2-135-.55-202.3s-5.23-135.43-42-196.47c-2.66,131.95-4.11,263.69-2.2,399H.71c1.37-33.09,3.74-65.32,3.86-97.56"/><path class="cls-1" d="M917.6,56.6h84.75V228.35h68V57.06h86.86c-11.27,47-10,506.48,1.78,541.11H1069.8V297.24H998.58c1.2,100.74-2.06,200,2.08,300.7H917.37c2-23.57,5.41-45.53,5.49-67.5q.74-206.23,0-412.46C922.82,98.46,919.61,79,917.6,56.6Z"/><path class="cls-1" d="M368.31,57.38h150c2.24,20.37-.6,41.7,7.19,57.93C591.64,253,617.17,399,619.17,550.34c.1,7.82-.38,15.83,1.14,23.4,1.48,7.4,5.18,14.35,8.81,23.86H538.39L547,477.06c-32.54,0-59.16-.59-85.69.59-4.37.19-12,8.12-12,12.52-.29,35.12.89,70.26,1.66,107.41h-83c1.84-24.23,5-47.1,5.08-70q.71-203.58,0-407.17C373,100,370.05,79.63,368.31,57.38Zm82.4,101.87v247.4h85.7C520.08,318.63,504.12,233.1,450.71,159.25Z"/><path class="cls-1" d="M1697.72,598.26h-91.23c22.31-59.3,10.29-117.76,5.3-176.12-1.3-15.24-6.7-23.73-24.2-22.56-20.56,1.37-41.27.32-61.22.32,0,32.67-1.44,2.49-1.44,33.88h-85.8c1.93-20.23,6.58,21,6.66,2.43q.73-160.47,0-320.95c-.08-18.67-3.21-37.33-5.1-57.88H1600.2c-19.44,28.55-5.21,52.37,6.05,76.59,60.1,129.28,82.21,266.52,85.85,407.73C1692.57,559.56,1695.58,577.38,1697.72,598.26Zm-173-445.15V330.73h70.74C1579.38,268.33,1564.56,208.7,1524.69,153.1Z"/><path class="cls-1" d="M651.15,598.48V457.16l6.91-.46c4.55,10.85,8.32,22.12,13.8,32.49,20.07,38,61.3,54.16,99.85,35.84,12.27-5.83,23.95-21.1,28-34.46,13.74-44.73-4.37-89.93-42.26-119.83-25.83-20.39-52.43-40.48-74.93-64.26-47.36-50.07-53.48-111.71-39.49-175.82,8.83-40.44,37-67.63,77.54-71.16,50.71-4.42,102.11-1.06,149.58-1.06V199.49l-8.82,1.7c-2.2-7-3.74-14.2-6.72-20.8-11.69-25.87-25.12-50.5-56.94-55.45-36.84-5.74-61.93,3.69-73.06,26.49C709.23,183,719,235,746.55,260.19c12.11,11.1,26,20.46,39.74,29.53,77.61,51.06,114.43,142.72,92.79,232-10.89,44.94-40.71,72.55-91.2,76.07C741.23,601,694.17,598.48,651.15,598.48Z"/><path class="cls-1" d="M1572.4,475.1c-5.4,16.76-10.27,35.13-17.73,52.71-1.77,4.17-12.15,8-18.6,8-82.86.51-165.75,1.41-248.58-.09-60.89-1.11-95-29.49-100.75-81.92-3.13-28.7-2.9-57.74-2.8-86.62.25-73.79-1.06-147.66,2.76-221.33,3-57,37.92-83.16,104.57-85.39,26.69-.89,53.48.45,80.17-.46,15.53-.53,22.62,4.89,25.48,17.36,3.54,15.4,8.33,30.59,11.81,43.1-31.78,0-62.51-.74-93.17.2-33.76,1-53.82,16.47-54.26,45.75q-2,131.24-.17,262.52c.35,28.26,18.33,45.07,51.09,45.64C1398,476.09,1483.92,475.1,1572.4,475.1Z"/><path class="cls-2" d="M1769.68,593c2.07-20.29,5.09-36.35,5.13-52.4q.56-206.84,0-413.69c0-15.33-3-30.66-5.07-50.7,53.36,3.43,109.28-9.14,163.37,9.16,37.55,12.7,51.3,45.38,52.77,82.24,2,51.11,2.13,102.32,2.14,153.49,0,58.6.86,117.29-2,175.77-3.22,65.32-36.36,95.2-101.4,96C1845.93,593.41,1807.25,593,1769.68,593Zm78.57-68.9c48.49,11.67,68.15-2.54,68.63-51.73q1.33-137.51.08-275c-.37-49.31-17.23-61.85-68.71-52.88Z"/><path class="cls-2" d="M2106,525.11h105.84c-4.52,18-8.91,38.52-15.22,58.4-1.36,4.28-9.61,9-14.75,9-51.92.66-103.86.4-150.39.4.73-171.88.64-341.82,0-516.6h28.88c38,0,76,.48,114-.22,14.55-.27,23.16,3.31,25.84,19.18,2.83,16.77,8.12,33.12,12.13,48.86h-106v95h81.86v67.57H2106Z"/><path class="cls-1" d="M3445.06,528.91c-4.61,17.6-8.59,36.16-14.73,54-1.69,4.9-9.8,10.79-15,10.82-83.16.47-166.33.08-249.5-.23-1.25,0-2.49-1.56.43.39l8.09-111.33H3087V592.59h-75.36c7.56-97.33,2.14-195.17,3.54-292.82.65-45.58.69-91.19-.14-136.77-.4-21.92-3.48-43.78-5.46-67.12h135.68c4.24,22.48,4,44.79,12.58,62.92,58,122.43,79,252.36,82.53,386.22.14,5.54,0,11.09,0,16.63l5.78,1.36L3364.6,159.52H3259.17c4.67-18,9-37,14.84-55.56,1.24-4,7.64-9,11.72-9,57.31-.59,114.62-.4,168.05-.4L3325.1,528.91ZM3164,417.77c-14.89-82.17-29.61-161.45-79.09-235.89V417.77Z"/><path class="cls-1" d="M3735.19,94.42c18.27,0,37.53-1.66,56.28.72,9,1.15,19.8,8,25.19,15.51,29.63,41.39,57.85,83.8,83.53,121.42V95.77h76.44c-1.49,26.38-4.1,52.08-4.2,77.8q-.67,178.62,0,357.25c.08,20.22,3.4,40.43,5.34,62h-77.18c9.93-132.51-19.13-254.19-86.24-374.56V592.64h-78.71c1.75-20.84,4.72-40.21,4.78-59.58q.63-193,0-386C3740.4,130.73,3737.28,114.42,3735.19,94.42Z"/><path class="cls-1" d="M2853.71,383.83c-67.88,61.1-50.51,134.78-43.69,208.67h-76.23c5.54-86,1.59-172.56,2.49-259q.9-86.3-.1-172.62c-.22-21.14-2.84-42.25-4.6-66.66,25.23,0,52.93-.19,80.62,0,34.34.29,68.81-.79,103,1.84,42.81,3.3,63,30.09,49,71.09-14.35,41.93-35,82-55.92,121.27-9.14,17.17-9.45,30.3-4.31,48.71,19.71,70.57,36.42,142,54.59,213,3.49,13.63,8.49,26.86,13.32,42h-83.81C2899.49,519.33,2871.11,453.47,2853.71,383.83Zm-47.88-54c11.52-18.24,19.64-30.4,27.06-43,17.78-30.13,35.93-60.07,52.5-90.86,7.92-14.71,8.58-32.51-12.12-35.75-22-3.44-45-.77-67.44-.77Z"/><path class="cls-1" d="M3696.7,343.51c0,48,.88,96-.24,144-.9,38.47-5.78,78.42-46.46,95.37-45,18.75-92.46,19.78-136.11-6.22-29.23-17.41-36.3-48.72-36.68-79.41-1.28-102.35-2-204.75.11-307.07,1.32-63.79,34.71-93.56,98.82-95.81,6.39-.22,12.8-.13,19.19,0,66.86,1,97.77,31,101.16,98.08.08,1.6.16,3.2.16,4.8Q3696.67,270.33,3696.7,343.51Zm-149.34.14h.08c0,49.55-.8,99.12.32,148.64.6,26.26,12.38,37,36.36,38.65,26.64,1.78,38.15-6.78,43.56-33.54,1.72-8.52,2.1-17.43,2.12-26.17q.22-127.08-.08-254.16c0-11.06-1.65-22.24-3.72-33.14-3.26-17.14-14-25.66-31.78-26.65-32.7-1.82-45.57,8.16-46.52,42.52C3546.37,247.72,3547.36,295.7,3547.36,343.65Z"/><path class="cls-1" d="M2659.65,526.51c-14.5,67.72-14.5,67.72-81,67.72-75.11,0-150.22.16-225.34-.05-69.09-.19-103.31-30.32-104.85-99.5q-3.36-150.94,0-302c1.59-68.6,34.53-97.47,103.13-98.37,20.77-.27,41.57.55,62.32-.25,13.24-.51,20.69,3.46,23.39,17.35,3.15,16.2,8.23,32,11.91,45.89-26.6,0-51.71-.37-76.81.09-39.53.72-54.85,15.36-55.87,55.46-1,39.13-.26,78.3-.26,117.46,0,47.14-.42,94.29.16,141.43.53,42.85,15,58.74,57.4,59.24,85.49,1,171,.47,256.49.15C2639.51,531.09,2648.67,528.31,2659.65,526.51Z"/><path class="cls-1" d="M2473,296.43c0-38.34-1.74-76.78.42-115,3-52.35,32.64-80.92,85-86.08,97.45-9.62,134.51,23.93,134.67,122,.09,53.54.34,107.08-.19,160.61a297.35,297.35,0,0,1-4.38,47.61c-7.14,41.22-29.45,64.51-70.6,70a267,267,0,0,1-69.08.3c-45.1-5.85-70.21-34-75.27-79.73a181.24,181.24,0,0,1-1.47-19.11c-.15-33.56-.07-67.11-.07-100.67Zm68.52-.5h.24c0,33.49-1.41,67.06.39,100.45,1.85,34.24,37.62,54.5,62.84,33.82,12.25-10,18.68-32.83,19.44-50.21,2.41-54.92,1.08-110,.73-165a154.26,154.26,0,0,0-3.69-30.78c-3.34-15.74-13.22-24.49-29.8-26.19-33.53-3.42-48.4,8.72-49.88,44.65C2540.54,233.69,2541.55,264.83,2541.55,295.93Z"/><path class="cls-1" d="M3647.29,0c8.27,8.84,19.57,16.36,24.1,26.82C3678,42,3667.95,54,3653.31,57.35c-33.25,7.64-67,13.22-100.53,19.52-10.94,2.05-21.9,4.57-32.94,5.12-4.32.22-10.18-3.43-12.83-7.12-1.56-2.16.62-10.42,3.15-11.61,42.35-19.89,85-39.1,127.65-58.38,1.37-.62,3.14-.34,4.73-.49Z"/></g></g></svg>