<svg xmlns="http://www.w3.org/2000/svg" viewBox="0 0 276.4 244.48"><defs><style>.cls-1{fill:#42b9b6;}.cls-2{fill:#28726f;}.cls-3{fill:#fff;}</style></defs><title>mashcabox</title><g id="Capa_2" data-name="Capa 2"><g id="Capa_1-2" data-name="Capa 1"><polygon class="cls-1" points="159.07 36.44 79.53 36.44 0 36.44 0 244.48 79.53 244.48 159.07 244.48 238.6 244.48 238.94 206.72 238.72 37.33 159.07 36.44"/><polygon class="cls-1" points="239.43 244.48 239.43 37.2 252.06 25.77 276.4 0 276.4 196.5 239.43 244.48"/><polygon class="cls-2" points="41.45 0 0 36.43 179.4 36.64 239.11 36.43 253.78 24.2 276.4 0 41.45 0"/><path class="cls-3" d="M49.47,98.44c5-1.06,6.83-.42,9.6,3.91,1.57,2.46,2.83,4.72,4.23,7.25,1.2-2.26,2.35-4.27,3.69-6.53,2.88-4.85,4.37-5.48,9.7-4.73,0,7.65,0,14.87,0,22.46s0,15.08,0,22.81H69.86c.13-2.54.36-5.11.37-7.69,0-7.87,0-15.74,0-23.61V110A14.64,14.64,0,0,0,67,119c-.37,7.34-.53,14.68-.76,22,0,.86,0,1.72,0,2.71H60.17c0-5.71.17-11.41,0-17.1s-.44-11.45-3.57-16.6c-.23,11.15-.35,22.28-.19,33.72H49.53c.12-2.8.32-5.52.33-8.24"/><path class="cls-3" d="M127.33,97.93h7.19v14.51h5.77V98h7.37c-1,4-.85,42.8.15,45.73h-7.57V118.26h-6c.1,8.51-.17,16.91.18,25.41h-7.07c.17-2,.46-3.85.47-5.7q.06-17.43,0-34.86C127.77,101.46,127.5,99.82,127.33,97.93Z"/><path class="cls-3" d="M80.72,98H93.45c.19,1.72-.05,3.52.61,4.9,5.61,11.64,7.78,24,7.95,36.77a10.82,10.82,0,0,0,.1,2,14.15,14.15,0,0,0,.75,2h-7.7l.73-10.19c-2.76,0-5,0-7.27,0a1.5,1.5,0,0,0-1,1.06c0,3,.08,5.94.14,9.08h-7c.16-2,.42-4,.43-5.91q.06-17.21,0-34.41C81.12,101.6,80.87,99.87,80.72,98Zm7,8.61v20.91H95C93.6,120.07,92.25,112.84,87.71,106.6Z"/><path class="cls-3" d="M193.51,143.7h-7.74c1.89-5,.87-10,.45-14.88-.11-1.29-.57-2-2.05-1.91-1.74.12-3.5,0-5.19,0,0,2.76-.12.21-.12,2.86h-7.28c.16-1.71.56,1.77.57.21q.06-13.56,0-27.12c0-1.58-.27-3.16-.43-4.89h13.53c-1.65,2.41-.44,4.43.51,6.47,5.1,10.93,7,22.52,7.28,34.46C193.08,140.43,193.33,141.94,193.51,143.7Zm-14.68-37.62v15h6C183.47,115.82,182.22,110.78,178.83,106.08Z"/><path class="cls-3" d="M104.72,143.72V131.78l.59,0c.39.92.71,1.87,1.17,2.75a6.33,6.33,0,0,0,8.47,3,5.2,5.2,0,0,0,2.38-2.91c1.17-3.78-.37-7.6-3.59-10.13a58.07,58.07,0,0,1-6.36-5.43c-4-4.23-4.54-9.44-3.35-14.86a7.2,7.2,0,0,1,6.58-6c4.3-.37,8.66-.09,12.69-.09V110l-.75.14a15.79,15.79,0,0,0-.57-1.76c-1-2.19-2.13-4.27-4.83-4.69-3.13-.48-5.25.31-6.2,2.24a8.65,8.65,0,0,0,1.86,9.19,26.43,26.43,0,0,0,3.37,2.5,18.19,18.19,0,0,1,7.87,19.61c-.92,3.8-3.45,6.13-7.74,6.43C112.36,143.94,108.37,143.72,104.72,143.72Z"/><path class="cls-3" d="M182.88,133.3c-.46,1.42-.87,3-1.5,4.45-.15.35-1,.68-1.58.68-7,0-14.06.12-21.09,0-5.17-.09-8.06-2.49-8.55-6.92a65.16,65.16,0,0,1-.24-7.32c0-6.24-.09-12.48.23-18.71.25-4.82,3.22-7,8.87-7.22,2.26-.08,4.54,0,6.8,0,1.32,0,1.92.41,2.16,1.47.3,1.3.71,2.59,1,3.64-2.7,0-5.3-.06-7.91,0-2.86.09-4.57,1.39-4.6,3.87q-.17,11.09,0,22.19c0,2.39,1.56,3.81,4.33,3.86C168.09,133.38,175.37,133.3,182.88,133.3Z"/><path class="cls-3" d="M49.86,178.15c.13-1.32.33-2.36.33-3.4q0-13.43,0-26.86c0-1-.19-2-.33-3.29,3.48.22,7.12-.59,10.65.59,2.45.82,3.34,2.95,3.44,5.34.13,3.32.14,6.64.14,10,0,3.8.06,7.61-.13,11.41-.21,4.24-2.37,6.18-6.61,6.23C54.83,178.18,52.31,178.15,49.86,178.15ZM55,173.68c3.16.76,4.44-.16,4.47-3.36q.09-8.93,0-17.86c0-3.2-1.12-4-4.48-3.43Z"/><path class="cls-3" d="M71.78,173.75h6.9c-.29,1.17-.58,2.5-1,3.79a1.23,1.23,0,0,1-1,.59c-3.38,0-6.77,0-9.8,0,0-11.16,0-22.19,0-33.54H68.8c2.48,0,5,0,7.43,0,.95,0,1.51.22,1.68,1.25s.53,2.15.79,3.17H71.8v6.17h5.34v4.39H71.78Z"/><path class="cls-3" d="M158.79,174.75c-.3,1.14-.56,2.35-1,3.5a1.31,1.31,0,0,1-1,.7c-5.42,0-10.84,0-16.26,0-.08,0-.16-.1,0,0l.53-7.23h-5.69v7.14h-4.91c.49-6.32.14-12.67.23-19,0-3,0-5.92,0-8.88,0-1.42-.23-2.84-.36-4.36h8.84a17.36,17.36,0,0,0,.82,4.08c3.78,7.95,5.15,16.38,5.38,25.07,0,.36,0,.72,0,1.08l.38.09,7.72-26.2h-6.87c.3-1.17.59-2.4,1-3.61a1,1,0,0,1,.76-.59c3.74,0,7.47,0,11,0L151,174.75Zm-18.32-7.22c-1-5.33-1.93-10.48-5.15-15.31v15.31Z"/><path class="cls-3" d="M177.7,146.54a29.19,29.19,0,0,1,3.67,0,2.68,2.68,0,0,1,1.64,1c1.93,2.69,3.77,5.44,5.44,7.88v-8.85h5c-.1,1.71-.27,3.38-.27,5.05q0,11.6,0,23.19c0,1.31.22,2.62.35,4h-5a41.9,41.9,0,0,0-5.62-24.32v24.31h-5.13c.11-1.35.31-2.61.31-3.87q0-12.53,0-25.06C178,148.9,177.84,147.84,177.7,146.54Z"/><path class="cls-3" d="M120.25,165.33c-4.42,4-3.29,8.75-2.85,13.55h-5c.36-5.58.1-11.2.16-16.81q.06-5.6,0-11.21c0-1.37-.18-2.74-.3-4.33,1.64,0,3.45,0,5.25,0,2.24,0,4.48-.05,6.71.12,2.79.21,4.11,2,3.19,4.62a54.61,54.61,0,0,1-3.64,7.87,3.77,3.77,0,0,0-.28,3.16c1.28,4.58,2.37,9.22,3.56,13.83.23.88.55,1.74.87,2.72h-5.46C123.23,174.12,121.38,169.85,120.25,165.33Zm-3.12-3.5c.75-1.18,1.28-2,1.76-2.79,1.16-2,2.34-3.9,3.42-5.9.52-1,.56-2.11-.79-2.32a28.82,28.82,0,0,0-4.4-.05Z"/><path class="cls-3" d="M175.19,162.71c0,3.12.06,6.23,0,9.35-.06,2.5-.38,5.09-3,6.19a9.59,9.59,0,0,1-8.87-.4c-1.9-1.13-2.37-3.16-2.39-5.16-.08-6.64-.13-13.29,0-19.94.09-4.14,2.26-6.07,6.44-6.22.42,0,.83,0,1.25,0,4.36.06,6.37,2,6.59,6.37,0,.1,0,.21,0,.31Q175.19,158,175.19,162.71Zm-9.73,0h0c0,3.22-.05,6.43,0,9.65a2.21,2.21,0,0,0,2.37,2.51c1.74.12,2.49-.44,2.84-2.18a8.67,8.67,0,0,0,.14-1.7q0-8.25,0-16.5a11.77,11.77,0,0,0-.24-2.15,2,2,0,0,0-2.07-1.73c-2.13-.12-3,.53-3,2.76C165.39,156.49,165.46,159.61,165.46,162.72Z"/><path class="cls-3" d="M107.6,174.59c-.95,4.4-.95,4.4-5.28,4.4-4.9,0-9.79,0-14.69,0-4.5,0-6.73-2-6.83-6.46q-.22-9.8,0-19.61c.1-4.45,2.25-6.33,6.72-6.39,1.35,0,2.71,0,4.06,0,.86,0,1.35.22,1.52,1.13.21,1.05.54,2.08.78,3-1.73,0-3.37,0-5,0-2.58,0-3.57,1-3.64,3.6s0,5.08,0,7.63c0,3.06,0,6.12,0,9.18,0,2.78,1,3.81,3.74,3.85,5.57.07,11.14,0,16.72,0A13.07,13.07,0,0,0,107.6,174.59Z"/><path class="cls-3" d="M95.44,159.65c0-2.49-.11-5,0-7.47.19-3.4,2.13-5.25,5.54-5.59,6.35-.62,8.77,1.55,8.78,7.92,0,3.48,0,7,0,10.43a19.23,19.23,0,0,1-.29,3.09,5,5,0,0,1-4.6,4.55,17.47,17.47,0,0,1-4.5,0c-2.94-.38-4.58-2.21-4.91-5.18a11.72,11.72,0,0,1-.1-1.24c0-2.18,0-4.36,0-6.54Zm4.47,0h0c0,2.17-.09,4.35,0,6.52s2.45,3.54,4.1,2.2a4.84,4.84,0,0,0,1.27-3.26c.16-3.57.07-7.14,0-10.71a10,10,0,0,0-.24-2,2,2,0,0,0-1.94-1.7c-2.19-.22-3.15.57-3.25,2.9C99.84,155.58,99.9,157.6,99.9,159.62Z"/><path class="cls-3" d="M172,140.41a7.34,7.34,0,0,1,1.57,1.74,1.42,1.42,0,0,1-1.18,2c-2.17.5-4.37.86-6.55,1.27a16.24,16.24,0,0,1-2.15.33,1.16,1.16,0,0,1-.84-.46.79.79,0,0,1,.21-.75c2.76-1.29,5.54-2.54,8.32-3.79a1,1,0,0,1,.31,0Z"/><path class="cls-3" d="M193.51,179.25a4.6,4.6,0,0,1-.86,1.19l-8,8a4.69,4.69,0,0,1-6.6,0l-8-8a4.59,4.59,0,0,1-.64-.81,4.61,4.61,0,0,1-.64.81l-8,8a4.69,4.69,0,0,1-6.6,0l-8-8a4.59,4.59,0,0,1-.64-.81,4.61,4.61,0,0,1-.64.81l-8,8a4.69,4.69,0,0,1-6.6,0l-8-8a4.59,4.59,0,0,1-.64-.81,4.61,4.61,0,0,1-.64.81l-8,8a4.69,4.69,0,0,1-6.6,0l-8-8a4.59,4.59,0,0,1-.64-.81,4.61,4.61,0,0,1-.64.81l-8,8a4.69,4.69,0,0,1-6.6,0l-8-8a4.59,4.59,0,0,1-.64-.81,4.61,4.61,0,0,1-.64.81l-8,8a4.69,4.69,0,0,1-6.6,0l-8-8a4.6,4.6,0,0,1-.86-1.19v12.91l4.41,4.39-4.41,4.39v12.92a4.6,4.6,0,0,1,.86-1.19l8-8a4.69,4.69,0,0,1,6.6,0l8,8a4.61,4.61,0,0,1,.64.81,4.61,4.61,0,0,1,.64-.81l8-8a4.69,4.69,0,0,1,6.6,0l8,8a4.61,4.61,0,0,1,.64.81,4.61,4.61,0,0,1,.64-.81l8-8a4.69,4.69,0,0,1,6.6,0l8,8a4.61,4.61,0,0,1,.64.81,4.61,4.61,0,0,1,.64-.81l8-8a4.69,4.69,0,0,1,6.6,0l8,8a4.61,4.61,0,0,1,.64.81,4.61,4.61,0,0,1,.64-.81l8-8a4.69,4.69,0,0,1,6.6,0l8,8a4.61,4.61,0,0,1,.64.81,4.61,4.61,0,0,1,.64-.81l8-8a4.69,4.69,0,0,1,6.6,0l8,8a4.6,4.6,0,0,1,.86,1.19V200.94l-4.41-4.39,4.41-4.39ZM61.91,199l-2.44-2.43,2.44-2.43,2.44,2.43Zm12.43,2-4.41-4.39,4.41-4.39,4.41,4.39ZM86,199l-2.44-2.43L86,194.12l2.44,2.43Zm11.82,2-4.41-4.39,4.41-4.39,4.41,4.39Zm11.95-2-2.44-2.43,2.44-2.43,2.44,2.43Zm11.52,2-4.41-4.39,4.41-4.39,4.41,4.39Zm12.25-2-2.44-2.43,2.44-2.43,2.44,2.43Zm11.44,2-4.41-4.39,4.41-4.39,4.41,4.39Zm12.33-2-2.44-2.43,2.44-2.43,2.44,2.43Zm12.59,2-4.41-4.39,4.41-4.39,4.41,4.39Zm11.18-2-2.44-2.43,2.44-2.43,2.44,2.43Z"/><path class="cls-3" d="M193.65,63.11a4.61,4.61,0,0,1-.86,1.19l-8,8a4.7,4.7,0,0,1-6.61,0l-8-8a4.59,4.59,0,0,1-.64-.81,4.62,4.62,0,0,1-.65.81l-8,8a4.7,4.7,0,0,1-6.61,0l-8-8a4.6,4.6,0,0,1-.64-.81,4.61,4.61,0,0,1-.65.81l-8,8a4.7,4.7,0,0,1-6.61,0l-8-8a4.6,4.6,0,0,1-.64-.81,4.62,4.62,0,0,1-.65.81l-8,8a4.7,4.7,0,0,1-6.61,0l-8-8a4.6,4.6,0,0,1-.64-.81,4.62,4.62,0,0,1-.65.81l-8,8a4.7,4.7,0,0,1-6.61,0l-8-8a4.6,4.6,0,0,1-.64-.81,4.62,4.62,0,0,1-.65.81l-8,8a4.7,4.7,0,0,1-6.61,0l-8-8a4.61,4.61,0,0,1-.86-1.19V76l4.41,4.4-4.41,4.4V97.78a4.61,4.61,0,0,1,.86-1.19l8-8a4.7,4.7,0,0,1,6.61,0l8,8a4.62,4.62,0,0,1,.64.81,4.62,4.62,0,0,1,.64-.81l8-8a4.7,4.7,0,0,1,6.61,0l8,8a4.62,4.62,0,0,1,.64.81,4.62,4.62,0,0,1,.64-.81l8-8a4.7,4.7,0,0,1,6.61,0l8,8a4.62,4.62,0,0,1,.64.81,4.62,4.62,0,0,1,.64-.81l8-8a4.7,4.7,0,0,1,6.61,0l8,8a4.62,4.62,0,0,1,.64.81,4.62,4.62,0,0,1,.64-.81l8-8a4.7,4.7,0,0,1,6.61,0l8,8a4.62,4.62,0,0,1,.64.81,4.62,4.62,0,0,1,.64-.81l8-8a4.7,4.7,0,0,1,6.61,0l8,8a4.61,4.61,0,0,1,.86,1.19V84.84l-4.41-4.4,4.41-4.4ZM61.8,82.88l-2.44-2.43L61.8,78l2.44,2.43Zm12.46,2-4.41-4.4L74.26,76l4.41,4.4Zm11.67-2-2.44-2.43L85.93,78l2.44,2.43Zm11.84,2-4.41-4.4L97.78,76l4.41,4.4Zm12-2-2.44-2.43L109.75,78l2.44,2.43Zm11.55,2-4.41-4.4,4.41-4.4,4.41,4.4Zm12.27-2-2.44-2.43L133.56,78,136,80.44Zm11.46,2-4.41-4.4L145,76l4.41,4.4Zm12.36-2-2.44-2.43L157.37,78l2.44,2.43Zm12.62,2-4.41-4.4L170,76l4.41,4.4Zm11.2-2-2.44-2.43L181.19,78l2.44,2.43Z"/></g></g></svg>